<svg width="38" height="38" viewBox="0 0 38 38" fill="none" xmlns="http://www.w3.org/2000/svg">
<path d="M19 0C13.962 0 9.12594 2.00302 5.56641 5.56492C2.00323 9.12826 0.00101961 13.9608 0 19C0 24.0371 2.00391 28.8732 5.56641 32.4351C9.12594 35.997 13.962 38 19 38C24.038 38 28.8741 35.997 32.4336 32.4351C35.9961 28.8732 38 24.0371 38 19C38 13.9629 35.9961 9.12683 32.4336 5.56492C28.8741 2.00302 24.038 0 19 0Z" fill="url(#paint0_linear_480_531)"/>
<path d="M8.60046 18.7993C14.1401 16.3863 17.8333 14.7955 19.6798 14.0268C24.9583 11.832 26.0537 11.4508 26.7692 11.4379C26.9266 11.4353 27.2769 11.4742 27.5055 11.659C27.6955 11.8149 27.7489 12.0257 27.7756 12.1737C27.7994 12.3215 27.832 12.6585 27.8053 12.9215C27.5203 15.9259 26.2823 23.2165 25.653 26.5816C25.3887 28.0054 24.8633 28.4828 24.3556 28.5294C23.2512 28.6309 22.4141 27.8003 21.3453 27.0999C19.6739 26.0036 18.7298 25.3214 17.1059 24.2517C15.2297 23.0155 16.4469 22.336 17.5156 21.2257C17.7947 20.935 22.6575 16.5131 22.7495 16.112C22.7614 16.0618 22.7733 15.8748 22.6605 15.7762C22.5506 15.6774 22.3873 15.7112 22.2686 15.7379C22.0994 15.7759 19.4305 17.5418 14.253 21.0351C13.4959 21.5558 12.8101 21.8096 12.1926 21.7963C11.5158 21.7817 10.2095 21.4127 9.23874 21.0974C8.05124 20.7106 7.10421 20.5061 7.18733 19.8491C7.2289 19.5071 7.70093 19.1571 8.60046 18.7993Z" fill="white"/>
<defs>
<linearGradient id="paint0_linear_480_531" x1="19" y1="0" x2="19" y2="38" gradientUnits="userSpaceOnUse">
<stop stop-color="#2AABEE"/>
<stop offset="1" stop-color="#229ED9"/>
</linearGradient>
</defs>
</svg>
