<svg width="106" height="9" viewBox="0 0 106 9" fill="none" xmlns="http://www.w3.org/2000/svg">
<path d="M0.437175 7.47383C0.260223 7.47383 0.0988848 7.44855 0 7.41821V6.41698C0.0624536 6.43215 0.202974 6.44732 0.307063 6.44732C1.01487 6.44732 1.30112 5.87591 1.37918 4.57633L1.629 0.121361H6.45353V7.41821H5.28773V1.09731H2.6855L2.46171 4.63701C2.34721 6.55857 1.7539 7.47383 0.437175 7.47383Z" fill="#9C4A2D"/>
<path d="M7.38513 7.41821L10.1175 0.121361H11.377L14.1041 7.41821H12.881L12.1941 5.44609H9.30037L8.60818 7.41821H7.38513ZM10.7368 1.32992L9.61264 4.53588H11.8766L10.7576 1.32992H10.7368Z" fill="#9C4A2D"/>
<path d="M18.0022 7.53957C15.8736 7.53957 14.5205 6.08323 14.5205 3.76726V3.7622C14.5205 1.44622 15.8736 0 18.0022 0C19.6573 0 20.9011 0.991117 21.1405 2.43228L21.1457 2.47779H19.9903L19.9591 2.37666C19.7093 1.52207 19.0119 1.00123 18.0022 1.00123C16.6074 1.00123 15.7123 2.07326 15.7123 3.7622V3.76726C15.7123 5.4562 16.6126 6.53834 18.0022 6.53834C19.0015 6.53834 19.6937 6.03267 19.9799 5.10729L19.9903 5.06178H21.1509L21.1405 5.11234C20.9063 6.56362 19.6625 7.53957 18.0022 7.53957Z" fill="#9C4A2D"/>
<path d="M25.5435 7.53957C23.3784 7.53957 22.0253 6.09335 22.0253 3.77231V3.7622C22.0253 1.44622 23.3837 0 25.5435 0C27.7086 0 29.0617 1.45128 29.0617 3.7622V3.77231C29.0617 6.08829 27.7138 7.53957 25.5435 7.53957ZM25.5435 6.53834C26.9851 6.53834 27.8699 5.4562 27.8699 3.77231V3.7622C27.8699 2.0682 26.9695 1.00123 25.5435 1.00123C24.1227 1.00123 23.2119 2.06314 23.2119 3.7622V3.77231C23.2119 5.47137 24.1175 6.53834 25.5435 6.53834Z" fill="#9C4A2D"/>
<path d="M30.2744 7.41315V0.116305H31.4402V6.43721H33.9435V0.116305H35.1093V6.43721H37.6179V0.116305H38.7837V6.44226H39.7205V8.85938H38.6587V7.41821H37.6179V7.41315H30.2744Z" fill="#9C4A2D"/>
<path d="M40.7405 7.41821V0.121361H41.9063V7.41821H40.7405Z" fill="#9C4A2D"/>
<path d="M46.0283 8.85938H44.9562V6.44226H45.5026C46.0387 6.1338 46.226 5.51183 46.2833 4.54599L46.5591 0.121361H51.4513V6.44226H52.3881V8.85938H51.3212V7.41821H46.0283V8.85938ZM47.3658 4.60162C47.3138 5.42586 47.2097 5.98716 46.8506 6.40181V6.44226H50.2855V1.09731H47.5948L47.3658 4.60162Z" fill="#9C4A2D"/>
<path d="M53.5643 7.47383C53.3874 7.47383 53.226 7.44855 53.1272 7.41821V6.41698C53.1896 6.43215 53.3301 6.44732 53.4342 6.44732C54.142 6.44732 54.4283 5.87591 54.5063 4.57633L54.7562 0.121361H59.5807V7.41821H58.4149V1.09731H55.8127L55.5889 4.63701C55.4744 6.55857 54.8811 7.47383 53.5643 7.47383Z" fill="#9C4A2D"/>
<path d="M66.4402 7.41821H65.2796V4.67241H63.9212L61.9539 7.41821H60.6164L62.7086 4.52576C61.6781 4.26787 60.9911 3.46891 60.9911 2.407V2.39689C60.9911 1.0518 62.0112 0.121361 63.5153 0.121361H66.4402V7.41821ZM65.2796 3.74197V1.07708H63.7495C62.7606 1.07708 62.1829 1.56253 62.1829 2.40194V2.41206C62.1829 3.25653 62.7606 3.74197 63.7495 3.74197H65.2796Z" fill="#9C4A2D"/>
<path d="M73.2944 7.53957C71.1658 7.53957 69.8127 6.08323 69.8127 3.76726V3.7622C69.8127 1.44622 71.1658 0 73.2944 0C74.9495 0 76.1933 0.991117 76.4327 2.43228L76.4379 2.47779H75.2826L75.2513 2.37666C75.0015 1.52207 74.3041 1.00123 73.2944 1.00123C71.8997 1.00123 71.0045 2.07326 71.0045 3.7622V3.76726C71.0045 5.4562 71.9049 6.53834 73.2944 6.53834C74.2937 6.53834 74.9859 6.03267 75.2721 5.10729L75.2826 5.06178H76.4431L76.4327 5.11234C76.1985 6.56362 74.9547 7.53957 73.2944 7.53957Z" fill="#9C4A2D"/>
<path d="M80.8357 7.53957C78.6707 7.53957 77.3175 6.09335 77.3175 3.77231V3.7622C77.3175 1.44622 78.6759 0 80.8357 0C83.0008 0 84.3539 1.45128 84.3539 3.7622V3.77231C84.3539 6.08829 83.006 7.53957 80.8357 7.53957ZM80.8357 6.53834C82.2774 6.53834 83.1621 5.4562 83.1621 3.77231V3.7622C83.1621 2.0682 82.2617 1.00123 80.8357 1.00123C79.4149 1.00123 78.5041 2.06314 78.5041 3.7622V3.77231C78.5041 5.47137 79.4097 6.53834 80.8357 6.53834Z" fill="#9C4A2D"/>
<path d="M85.5666 7.41821V0.121361H90.1673V1.09731H86.7324V2.9683H88.3978C89.8655 2.9683 90.8959 3.87345 90.8959 5.18314V5.19325C90.8959 6.51306 89.8811 7.41821 88.4238 7.41821H85.5666ZM86.7324 6.45743H88.1272C89.1316 6.45743 89.7093 6.00233 89.7093 5.19325V5.18314C89.7093 4.36901 89.1264 3.9139 88.122 3.9139H86.7324V6.45743Z" fill="#9C4A2D"/>
<path d="M91.4372 7.41821L94.1695 0.121361H95.429L98.1562 7.41821H96.9331L96.2461 5.44609H93.3524L92.6603 7.41821H91.4372ZM94.7889 1.32992L93.6647 4.53588H95.9287L94.8097 1.32992H94.7889Z" fill="#9C4A2D"/>
<path d="M100.254 7.41821H99.0878V0.121361H100.254V3.25653H100.545L103.345 0.121361H104.735L101.523 3.59533L105.047 7.41821H103.538L100.545 4.14651H100.254V7.41821Z" fill="#9C4A2D"/>
</svg>
