<svg width="63" height="20" viewBox="0 0 63 20" fill="none" xmlns="http://www.w3.org/2000/svg">
<path d="M1.96724 7.55482V1.26686H1.94149L0 2.60582V1.51405L1.95694 0.123596H3.09505V7.55482H1.96724Z" fill="#9C4A2D"/>
<path d="M7.62177 7.67841C5.84507 7.67841 4.7842 6.20041 4.7842 3.84178V3.83148C4.7842 1.47285 5.84507 0 7.62177 0C9.39331 0 10.4593 1.47285 10.4593 3.83148V3.84178C10.4593 6.20041 9.39331 7.67841 7.62177 7.67841ZM7.62177 6.71539C8.67748 6.71539 9.29546 5.62363 9.29546 3.84178V3.83148C9.29546 2.04964 8.67748 0.96817 7.62177 0.96817C6.5609 0.96817 5.94807 2.04964 5.94807 3.83148V3.84178C5.94807 5.62363 6.5609 6.71539 7.62177 6.71539Z" fill="#9C4A2D"/>
<path d="M14.2033 7.67841C12.4266 7.67841 11.3657 6.20041 11.3657 3.84178V3.83148C11.3657 1.47285 12.4266 0 14.2033 0C15.9748 0 17.0408 1.47285 17.0408 3.83148V3.84178C17.0408 6.20041 15.9748 7.67841 14.2033 7.67841ZM14.2033 6.71539C15.259 6.71539 15.877 5.62363 15.877 3.84178V3.83148C15.877 2.04964 15.259 0.96817 14.2033 0.96817C13.1424 0.96817 12.5296 2.04964 12.5296 3.83148V3.84178C12.5296 5.62363 13.1424 6.71539 14.2033 6.71539Z" fill="#9C4A2D"/>
<path d="M19.5333 3.84693C18.5497 3.84693 17.9472 3.1208 17.9472 1.95179V1.94664C17.9472 0.787926 18.5497 0.0617981 19.5333 0.0617981C20.517 0.0617981 21.1143 0.787926 21.1143 1.94664V1.95179C21.1143 3.1208 20.517 3.84693 19.5333 3.84693ZM20.0226 7.55482H19.0699L23.8129 0.123596H24.7604L20.0226 7.55482ZM19.5333 3.14655C20.002 3.14655 20.2698 2.70882 20.2698 1.95694V1.95179C20.2698 1.19476 20.002 0.762177 19.5333 0.762177C19.0647 0.762177 18.7969 1.19476 18.7969 1.95179V1.95694C18.7969 2.70882 19.0647 3.14655 19.5333 3.14655ZM24.2918 7.61662C23.3082 7.61662 22.7108 6.89049 22.7108 5.72662V5.72147C22.7108 4.55761 23.3082 3.83148 24.2918 3.83148C25.2754 3.83148 25.8728 4.55761 25.8728 5.72147V5.72662C25.8728 6.89049 25.2754 7.61662 24.2918 7.61662ZM24.2918 6.91624C24.7604 6.91624 25.0282 6.4785 25.0282 5.72662V5.72147C25.0282 4.96445 24.7604 4.53701 24.2918 4.53701C23.8232 4.53701 23.5554 4.96445 23.5554 5.72147V5.72662C23.5554 6.4785 23.8232 6.91624 24.2918 6.91624Z" fill="#9C4A2D"/>
<path d="M0.242043 19.5548V12.1236H1.39561V15.265H5.21164V12.1236H6.3652V19.5548H5.21164V16.2641H1.39561V19.5548H0.242043Z" fill="#9C4A2D"/>
<path d="M7.28188 19.5548L9.98554 12.1236H11.2318L13.9303 19.5548H12.7201L12.0403 17.5464H9.17702L8.49209 19.5548H7.28188ZM10.5984 13.3544L9.48601 16.6194H11.7262L10.619 13.3544H10.5984Z" fill="#9C4A2D"/>
<path d="M15.8049 19.5548V13.1175H13.5286V12.1236H19.2295V13.1175H16.9584V19.5548H15.8049Z" fill="#9C4A2D"/>
<path d="M21.1143 19.6115C20.8878 19.6115 20.6869 19.5754 20.62 19.5445V18.5557C20.723 18.5815 20.8775 18.5969 21.0474 18.5969C21.5624 18.5969 21.9177 18.3961 22.201 17.9017L19.6878 12.1236H20.9135L22.7726 16.6915H22.8498L24.6523 12.1236H25.8574L23.5811 17.4279C22.8962 19.0244 22.2885 19.6115 21.1143 19.6115Z" fill="#9C4A2D"/>
<path d="M26.7328 19.5548V12.1236H29.4983C30.9608 12.1236 31.9651 13.1021 31.9651 14.5595V14.5698C31.9651 16.022 30.9608 17.0159 29.4983 17.0159H27.8864V19.5548H26.7328ZM29.215 13.0969H27.8864V16.0478H29.215C30.2141 16.0478 30.7909 15.507 30.7909 14.5749V14.5646C30.7909 13.6376 30.2141 13.0969 29.215 13.0969Z" fill="#9C4A2D"/>
<path d="M31.9599 19.5548L34.6636 12.1236H35.9098L38.6084 19.5548H37.3981L36.7184 17.5464H33.8551L33.1701 19.5548H31.9599ZM35.2764 13.3544L34.164 16.6194H36.4042L35.297 13.3544H35.2764Z" fill="#9C4A2D"/>
<path d="M39.4529 19.6115C39.2778 19.6115 39.1182 19.5857 39.0203 19.5548V18.5351C39.0821 18.5506 39.2212 18.566 39.3242 18.566C40.0246 18.566 40.3078 17.9841 40.3851 16.6606L40.6322 12.1236H45.4062V19.5548H44.2526V13.1175H41.6777L41.4562 16.7224C41.3429 18.6793 40.7558 19.6115 39.4529 19.6115Z" fill="#9C4A2D"/>
<path d="M46.8842 19.5548V12.1236H48.0377V14.7861H49.7166C51.1791 14.7861 52.2039 15.7594 52.2039 17.1653V17.1756C52.2039 18.5815 51.1997 19.5548 49.7526 19.5548H46.8842ZM49.4488 15.7594H48.0377V18.5763H49.4488C50.4478 18.5763 51.0246 18.0717 51.0246 17.1756V17.1653C51.0246 16.2641 50.4427 15.7594 49.4488 15.7594Z" fill="#9C4A2D"/>
<path d="M53.306 19.5548V12.1236H54.4596V15.265H58.2756V12.1236H59.4292V19.5548H58.2756V16.2641H54.4596V19.5548H53.306Z" fill="#9C4A2D"/>
<path d="M60.8969 19.5548V12.1236H62.0504V19.5548H60.8969Z" fill="#9C4A2D"/>
</svg>
