<svg width="38" height="38" viewBox="0 0 38 38" fill="none" xmlns="http://www.w3.org/2000/svg">
<rect width="38" height="38" rx="6" fill="#9C4A2D"/>
<g clip-path="url(#clip0_480_524)">
<path fill-rule="evenodd" clip-rule="evenodd" d="M14.8255 27.1733H29.6648C29.7909 27.1733 29.8946 27.2738 29.8946 27.3982V28.7467C29.8946 28.8701 29.7918 28.9716 29.6648 28.9716L14.8255 28.9706C14.6994 28.9706 14.5957 28.8701 14.5957 28.7457V27.3973C14.5957 27.2748 14.6985 27.1733 14.8255 27.1733ZM8.98358 26.1914H11.0732C11.5542 26.1914 11.9503 26.579 11.9503 27.0499V29.095C11.9503 29.5658 11.5543 29.9535 11.0732 29.9535H8.98358C8.50252 29.9535 8.10645 29.5659 8.10645 29.095V27.0499C8.10645 26.579 8.50249 26.1914 8.98358 26.1914ZM14.8255 21.1255H29.6648C29.7909 21.1255 29.8946 21.2261 29.8946 21.3505V22.6989C29.8946 22.8224 29.7918 22.9238 29.6648 22.9238L14.8255 22.9229C14.6994 22.9229 14.5957 22.8224 14.5957 22.698V21.3495C14.5957 21.2261 14.6985 21.1255 14.8255 21.1255ZM8.98358 20.1428H11.0732C11.5542 20.1428 11.9503 20.5304 11.9503 21.0012V23.0464C11.9503 23.5172 11.5543 23.9048 11.0732 23.9048L8.98358 23.9057C8.50252 23.9057 8.10645 23.5181 8.10645 23.0473V21.0021C8.10645 20.5304 8.50249 20.1428 8.98358 20.1428ZM14.8255 15.0769H29.6648C29.7909 15.0769 29.8946 15.1775 29.8946 15.3018V16.6503C29.8946 16.7737 29.7918 16.8752 29.6648 16.8752H14.8255C14.6994 16.8752 14.5957 16.7746 14.5957 16.6503V15.3018C14.5957 15.1784 14.6985 15.0769 14.8255 15.0769ZM8.98358 14.095H11.0732C11.5542 14.095 11.9503 14.4827 11.9503 14.9535V16.9986C11.9503 17.4695 11.5543 17.8571 11.0732 17.8571H8.98358C8.50252 17.8571 8.10645 17.4695 8.10645 16.9986V14.9535C8.10645 14.4799 8.4997 14.095 8.98358 14.095ZM14.8255 9.02918H29.6648C29.7909 9.02918 29.8946 9.12974 29.8946 9.25408V10.6026C29.8946 10.726 29.7918 10.8275 29.6648 10.8275L14.8255 10.8265C14.6994 10.8265 14.5957 10.726 14.5957 10.6016V9.25316C14.5957 9.12974 14.6985 9.02918 14.8255 9.02918ZM8.98358 8.04639H11.0732C11.5542 8.04639 11.9503 8.43401 11.9503 8.90485V10.95C11.9503 11.4226 11.557 11.8085 11.0732 11.8085H8.98358C8.50252 11.8085 8.10645 11.4208 8.10645 10.95V8.90485C8.10645 8.43221 8.4997 8.04639 8.98358 8.04639Z" fill="#FFCFA8"/>
</g>
<defs>
<clipPath id="clip0_480_524">
<rect width="22" height="22" fill="white" transform="translate(8 8)"/>
</clipPath>
</defs>
</svg>
