<svg width="105" height="69" viewBox="0 0 105 69" fill="none" xmlns="http://www.w3.org/2000/svg">
<path d="M57.0183 26.73C56.1872 30.8167 51.4658 36.1371 53.1899 40.3266C53.3137 40.3608 53.4286 40.4037 53.517 40.4636C53.7557 40.6093 53.9679 40.8406 54.1271 41.0976C54.2774 41.3375 54.3835 41.6117 54.41 41.8773C54.4542 42.3142 54.4896 42.5455 53.9945 42.5969C53.9326 42.5969 53.8618 42.6141 53.7823 42.6141C53.0926 42.6655 51.9078 42.6655 51.1386 42.6141C50.9883 42.6141 50.8557 42.5969 50.7407 42.5884C50.0511 42.5198 49.7416 42.2799 49.5117 41.6545C49.2819 41.0205 49.0078 40.3865 48.7691 39.744C48.5126 39.05 48.2916 38.3389 48.1943 37.5935C48.1325 37.1223 48.0971 36.6597 48.0971 36.197C47.9556 34.8091 47.8672 33.4298 47.266 32.1532C47.2395 32.1018 47.2218 32.059 47.1952 32.0076C46.0458 29.72 43.5348 28.9661 41.1299 29.6772C40.7055 29.7971 40.1838 30.0113 39.8655 30.3112C42.5092 29.5915 45.2589 30.3455 46.3199 32.7358C46.4702 33.0699 46.5852 33.4297 46.6647 33.8324C47.098 36.0257 45.9574 38.2447 44.1184 39.4441L43.4287 39.8468C44.3306 39.8725 45.3473 39.7268 46.1961 39.8296C47.319 39.9667 48.3004 40.9177 48.4684 42.0058C48.5126 42.2714 48.2916 42.5113 48.0175 42.5113H32.6507C31.3776 42.3399 30.0601 42.0829 28.9638 41.3975C29.1318 41.3204 29.344 41.3718 29.5385 41.3461C29.6357 41.3289 29.9629 41.3118 29.9717 41.2004C29.061 41.1747 28.1327 40.8834 27.443 40.2837C27.2573 40.1209 26.7976 39.6069 26.7092 39.4013C26.6915 39.3584 26.6915 39.2728 26.7445 39.2899C26.9744 39.4355 27.275 39.5983 27.558 39.5555C26.497 38.9558 25.7631 38.1076 25.7719 36.831L26.3113 37.2937C26.0018 36.5483 25.7012 35.623 26.1345 34.8605C26.3201 34.535 26.6119 34.0123 26.8241 33.6953C27.4077 32.83 28.451 32.1361 29.4235 31.7762C27.0982 34.5178 28.672 38.2618 32.2175 38.673C32.0141 34.038 33.862 29.4116 36.6118 25.7276C37.4429 24.6138 38.4243 23.6114 39.3527 22.5748C40.564 21.2211 41.4747 19.6276 42.0317 17.9141C42.3942 16.8003 42.7921 15.5666 42.9336 15.1896C43.075 14.8041 43.2961 13.6903 43.4375 13.459C43.4375 13.459 45.0114 10.5118 44.9671 10.2805C44.9229 10.0492 44.7815 10.1091 44.0653 9.98918C43.3491 9.86924 43.0131 10.0834 41.4924 10.1091C39.9716 10.1348 39.45 9.5094 38.946 9.20954C38.442 8.90968 37.8231 8.32709 37.8496 7.77021C37.885 7.21332 39.5826 6.36514 40.1042 6.05672C40.6347 5.74829 41.5808 5.27708 41.6515 5.08859C41.7223 4.90011 42.3854 4.18044 42.5269 4.1119C42.6683 4.04336 42.4738 3.82061 42.4738 3.27229C42.4738 2.72397 44.8257 1.20753 45.0644 1.10472C45.3031 1.00191 45.3473 0.427894 46.3553 0.0937635C47.3632 -0.240367 47.5666 0.427894 47.7965 0.402192C48.0264 0.37649 48.8398 0.222275 49.7593 0.247978C50.6877 0.27368 51.5984 1.15613 51.9786 1.76442C52.3588 2.36414 51.9786 2.56976 51.5188 2.97243C51.0502 3.38367 51.3243 4.59168 51.2359 5.28564C51.1475 5.97104 49.0962 6.99057 49.0962 6.99057C49.0962 6.99057 49.6532 6.97343 50.8645 6.2709C52.0758 5.56837 51.5365 3.7178 51.8371 3.47791C52.1377 3.23802 52.2173 3.3751 53.0484 4.50601C53.8707 5.62834 53.8707 7.299 54.2686 8.41277C54.5957 9.32948 55.0997 13.7246 55.2853 14.3757C55.4445 14.9412 55.5948 15.558 55.7363 16.192C57.1332 19.6104 57.708 23.3801 57.0271 26.7214L57.0183 26.73Z" fill="#9C4A2D"/>
<path d="M79.0867 36.8739C78.795 39.4955 75.8153 42.6141 73.0125 42.6141H59.6086C59.0958 42.6141 59.5202 41.5774 59.6705 41.3204C60.0242 40.6864 60.1656 40.7549 60.705 40.4893C61.4034 40.198 62.1727 40.0781 62.9065 40.2923C64.0029 40.198 62.5175 39.4527 62.2169 39.1185C60.3513 36.9681 60.0418 33.2498 63.101 32.059C64.4273 31.5449 66.3724 32.0675 66.4962 31.9561C66.8676 31.6477 65.8331 31.3393 65.6916 31.2879C62.5705 30.2255 60.201 32.1446 59.5555 35.0147C59.2461 36.3941 58.6714 41.5688 57.8049 42.4256C57.5308 42.6912 56.3637 42.7254 56.0896 42.5284C56.01 42.477 55.5238 41.2347 55.5238 40.7721C55.5238 40.0096 56.3283 38.2704 56.3283 37.0881C56.3283 36.1542 55.9039 34.7748 55.7536 33.721C55.6033 32.6672 55.7625 32.8472 55.957 32.4531C56.1515 32.059 56.1073 32.1446 56.1869 31.9904C56.6201 31.108 57.0357 30.2512 57.3893 29.4202C57.743 28.5806 58.0259 27.7667 58.1939 26.9613C58.8747 23.6029 58.4061 19.6618 56.8765 15.8665C56.7262 15.1811 56.5759 14.5985 56.4256 14.0844C56.3725 13.8788 56.2222 12.885 56.1073 12.0796C56.0719 11.8055 56.0277 11.5485 55.9924 11.3C55.957 11.0515 55.9747 10.7603 56.0719 10.5032L58.0701 5.27708C58.2381 4.78873 60.4839 2.26133 60.8995 2.6897L61.1028 7.14478C62.2876 7.22189 64.6306 7.59886 65.391 8.50701C65.6474 8.81544 65.7447 9.30378 66.0099 9.64648C67.0356 10.9744 69.0426 10.8716 70.3423 11.5999C71.3326 12.1567 69.8118 14.3243 69.2283 14.8212C66.8234 16.8774 61.7925 13.7589 62.491 19.2592C62.8888 22.3435 68.5387 26.4473 70.5987 28.8462C73.2866 31.9733 73.9939 35.5116 73.2954 39.5041C77.0974 39.2813 78.459 34.9376 76.894 31.9476C78.6977 32.6758 79.2636 35.1689 79.069 36.8653L79.0867 36.8739Z" fill="#9C4A2D"/>
<path d="M61.9078 6.47652C62.0581 6.58789 63.7026 6.97343 63.8176 6.76781C63.8441 6.21092 64.1712 3.26372 63.906 3.07523C62.7477 3.09237 60.8998 5.73115 61.9078 6.46795V6.47652Z" fill="#9C4A2D"/>
<path d="M0 68.7117V51.3785H2.4498L8.33876 65.985H8.40942L14.2984 51.3785H16.7482V68.7117H14.7695V55.3184H14.6988L9.26921 68.7117H7.47897L2.04936 55.3184H1.97869V68.7117H0Z" fill="#9C4A2D"/>
<path d="M22.9551 68.952C20.5171 68.952 18.88 67.4505 18.88 65.1802V65.1562C18.88 63.0301 20.5053 61.6967 23.3202 61.5286L26.8301 61.3244V60.2793C26.8301 58.7538 25.8525 57.8289 24.1447 57.8289C22.5665 57.8289 21.5771 58.5977 21.3416 59.7148L21.318 59.8229H19.3393L19.3511 59.6907C19.5278 57.6367 21.2827 55.979 24.1683 55.979C27.0656 55.979 28.8794 57.5766 28.8794 60.0751V68.7117H26.8301V66.6817H26.783C26.0645 68.0511 24.5923 68.952 22.9551 68.952ZM20.9764 65.1802C20.9764 66.3814 21.9422 67.1382 23.4145 67.1382C25.346 67.1382 26.8301 65.7808 26.8301 63.967V62.946L23.5558 63.1502C21.9187 63.2463 20.9764 63.991 20.9764 65.1562V65.1802Z" fill="#9C4A2D"/>
<path d="M31.4823 68.7117V56.2193H33.5317V58.3334H33.5788C33.991 56.892 35.051 55.979 36.4291 55.979C36.7824 55.979 37.0886 56.0391 37.2535 56.0631V58.0932C37.0886 58.0331 36.6528 57.973 36.1582 57.973C34.5681 57.973 33.5317 59.1022 33.5317 61V68.7117H31.4823Z" fill="#9C4A2D"/>
<path d="M43.4133 68.952C39.9389 68.952 37.7364 66.4294 37.7364 62.4535V62.4415C37.7364 58.5016 39.986 55.979 43.3898 55.979C46.4403 55.979 48.2423 58.0451 48.5014 60.1832L48.5132 60.2793H46.5109L46.4874 60.1832C46.1812 58.934 45.1918 57.8289 43.3898 57.8289C41.258 57.8289 39.8329 59.6307 39.8329 62.4655V62.4775C39.8329 65.3844 41.2933 67.1021 43.4133 67.1021C45.0858 67.1021 46.1576 66.1412 46.4992 64.7478L46.5227 64.6517H48.5367L48.525 64.7358C48.1952 67.1141 46.1812 68.952 43.4133 68.952Z" fill="#9C4A2D"/>
<path d="M55.4621 68.952C51.9406 68.952 49.8205 66.4415 49.8205 62.5135V62.5015C49.8205 58.6337 51.9877 55.979 55.3326 55.979C58.6775 55.979 60.7151 58.5136 60.7151 62.2613V63.0301H51.8934C51.9406 65.6006 53.3303 67.1021 55.5093 67.1021C57.0639 67.1021 58.1593 66.3093 58.5126 65.2403L58.548 65.1322H60.562L60.5384 65.2523C60.138 67.3183 58.1357 68.952 55.4621 68.952ZM55.3208 57.8289C53.5423 57.8289 52.1526 59.0661 51.9288 61.3964H58.6304C58.4302 58.97 57.111 57.8289 55.3208 57.8289Z" fill="#9C4A2D"/>
<path d="M62.894 68.7117V51.3785H64.9434V68.7117H62.894Z" fill="#9C4A2D"/>
<path d="M71.2151 65.2643C71.0502 65.012 70.8294 64.6246 70.5526 64.1021C70.2346 64.3063 69.9872 64.5316 69.8106 64.7778C69.5809 65.1021 69.4778 65.4505 69.5014 65.8228C69.525 66.2252 69.6427 66.5376 69.8547 66.7598C70.0726 66.976 70.3259 67.0901 70.6144 67.1021C70.85 67.1141 71.1032 67.0571 71.3741 66.9309C71.5802 66.8348 71.801 66.6697 72.0366 66.4355C71.7127 66.015 71.4389 65.6246 71.2151 65.2643ZM70.3759 63.7418C70.105 63.1892 69.9637 62.7208 69.9519 62.3364C69.946 61.946 70.0638 61.6247 70.3052 61.3724C70.5526 61.1202 70.8883 61.003 71.3123 61.0211C71.642 61.0331 71.9129 61.1472 72.1249 61.3634C72.3428 61.5796 72.4518 61.8589 72.4518 62.2012C72.4518 62.5616 72.334 62.8649 72.0984 63.1111C71.8747 63.3394 71.5066 63.5886 70.9943 63.8589C71.2475 64.3213 71.4418 64.6667 71.5773 64.8949C71.7834 65.2313 72.0395 65.6246 72.3458 66.0751C72.4812 65.8949 72.6078 65.6787 72.7256 65.4264C72.8611 65.1081 72.9288 64.8529 72.9288 64.6607C72.9288 64.5165 72.8964 64.4024 72.8316 64.3183C72.7727 64.2283 72.6667 64.1832 72.5136 64.1832C72.4312 64.1832 72.3899 64.1472 72.3899 64.0751C72.3899 64.003 72.4282 63.967 72.5048 63.967H73.9534C74.0653 63.967 74.1213 64.003 74.1213 64.0751C74.1213 64.1472 74.0653 64.1832 73.9534 64.1832C73.8298 64.1832 73.7238 64.2102 73.6354 64.2643C73.5471 64.3123 73.4735 64.4595 73.4146 64.7057C73.2497 65.3424 72.9729 65.9129 72.5843 66.4174C72.8905 66.7958 73.1967 67.012 73.5029 67.0661C73.6089 67.0841 73.7238 67.0811 73.8475 67.0571C73.977 67.027 74.0977 66.976 74.2096 66.9039C74.3274 66.8439 74.4069 66.8529 74.4481 66.9309C74.4952 67.009 74.4776 67.0781 74.3951 67.1382C74.3245 67.1982 74.2096 67.2613 74.0506 67.3273C73.8975 67.3934 73.7061 67.4264 73.4764 67.4264C73.0642 67.4264 72.6726 67.2072 72.3016 66.7688C71.8069 67.3033 71.2504 67.5706 70.6321 67.5706C70.1197 67.5706 69.7105 67.4054 69.4042 67.0751C69.1039 66.7448 68.9537 66.3424 68.9537 65.8679C68.9537 65.3754 69.1039 64.937 69.4042 64.5526C69.6398 64.2523 69.9637 63.982 70.3759 63.7418ZM70.8176 63.5075C71.2828 63.2673 71.5979 63.0511 71.7628 62.8589C71.9453 62.6547 72.0366 62.4505 72.0366 62.2463C72.0366 62.006 71.9659 61.8109 71.8246 61.6607C71.6891 61.5045 71.5036 61.4265 71.2681 61.4265C71.0266 61.4265 70.8323 61.5045 70.6851 61.6607C70.5437 61.8109 70.4731 62.0301 70.4731 62.3184C70.4731 62.6427 70.5879 63.0391 70.8176 63.5075Z" fill="#9C4A2D"/>
<path d="M85.1189 69C80.396 69 77.3573 65.4925 77.3573 60.0391V60.0271C77.3573 54.5737 80.3842 51.0902 85.1189 51.0902C88.6523 51.0902 91.3965 53.2764 92.0443 56.5556L92.0679 56.6757H89.9243L89.8418 56.4115C89.1823 54.3094 87.5098 53.0842 85.1189 53.0842C81.7269 53.0842 79.5362 55.8109 79.5362 60.0271V60.0391C79.5362 64.2553 81.7386 67.006 85.1189 67.006C87.498 67.006 89.1469 65.8048 89.889 63.5226L89.9243 63.4144H92.0679L92.0443 63.5346C91.3965 66.8499 88.6758 69 85.1189 69Z" fill="#9C4A2D"/>
<path d="M99.3348 68.952C95.931 68.952 93.6579 66.4415 93.6579 62.4655V62.4415C93.6579 58.4655 95.9428 55.979 99.3231 55.979C102.703 55.979 105 58.4535 105 62.4415V62.4655C105 66.4535 102.715 68.952 99.3348 68.952ZM99.3466 67.1021C101.502 67.1021 102.904 65.3964 102.904 62.4655V62.4415C102.904 59.5106 101.49 57.8289 99.3231 57.8289C97.1913 57.8289 95.7543 59.5226 95.7543 62.4415V62.4655C95.7543 65.4084 97.1795 67.1021 99.3466 67.1021Z" fill="#9C4A2D"/>
</svg>
