<svg width="63" height="37" viewBox="0 0 63 37" fill="none" xmlns="http://www.w3.org/2000/svg">
<path d="M11.3752 17.0408H10.2599V9.55801H11.3752V12.7731H11.654L14.3327 9.55801H15.6622L12.5901 13.1205L15.9609 17.0408H14.517L11.654 13.6857H11.3752V17.0408Z" fill="#9C4A2D"/>
<path d="M19.5857 17.1652C17.5144 17.1652 16.2198 15.6822 16.2198 13.302V13.2916C16.2198 10.9166 17.5193 9.43356 19.5857 9.43356C21.6569 9.43356 22.9515 10.9218 22.9515 13.2916V13.302C22.9515 15.677 21.6619 17.1652 19.5857 17.1652ZM19.5857 16.1385C20.9649 16.1385 21.8113 15.0288 21.8113 13.302V13.2916C21.8113 11.5545 20.9499 10.4603 19.5857 10.4603C18.2264 10.4603 17.355 11.5493 17.355 13.2916V13.302C17.355 15.0443 18.2214 16.1385 19.5857 16.1385Z" fill="#9C4A2D"/>
<path d="M25.2269 17.0408H24.1116V9.55801H28.5032V10.5588H25.2269V17.0408Z" fill="#9C4A2D"/>
<path d="M32.2126 17.1652C30.1413 17.1652 28.8467 15.6822 28.8467 13.302V13.2916C28.8467 10.9166 30.1463 9.43356 32.2126 9.43356C34.2839 9.43356 35.5784 10.9218 35.5784 13.2916V13.302C35.5784 15.677 34.2888 17.1652 32.2126 17.1652ZM32.2126 16.1385C33.5918 16.1385 34.4382 15.0288 34.4382 13.302V13.2916C34.4382 11.5545 33.5768 10.4603 32.2126 10.4603C30.8533 10.4603 29.982 11.5493 29.982 13.2916V13.302C29.982 15.0443 30.8483 16.1385 32.2126 16.1385Z" fill="#9C4A2D"/>
<path d="M23.4614 26.6558C23.2921 26.6558 23.1377 26.6299 23.0431 26.5988V25.572C23.1029 25.5876 23.2373 25.6032 23.3369 25.6032C24.014 25.6032 24.2879 25.0172 24.3626 23.6845L24.6016 19.116H29.2172V26.5988H28.1019V20.1168H25.6123L25.3982 23.7467C25.2887 25.7172 24.7211 26.6558 23.4614 26.6558Z" fill="#9C4A2D"/>
<path d="M30.6462 26.5988V19.116H31.7615V22.2792H32.9116C33.1008 20.2413 34.3257 18.9916 36.1928 18.9916C38.2343 18.9916 39.489 20.4746 39.489 22.8496V22.86C39.489 25.2246 38.2392 26.7232 36.1928 26.7232C34.2659 26.7232 33.051 25.4009 32.9067 23.2852H31.7615V26.5988H30.6462ZM36.1928 20.0183C34.8634 20.0183 34.022 21.1177 34.022 22.8496V22.86C34.022 24.5816 34.8385 25.6965 36.1928 25.6965C37.5272 25.6965 38.3488 24.5816 38.3488 22.86V22.8496C38.3488 21.1177 37.5222 20.0183 36.1928 20.0183Z" fill="#9C4A2D"/>
<path d="M40.6541 26.5988V19.116H45.0556V20.1168H41.7694V22.0355H43.3627C44.7668 22.0355 45.7526 22.9637 45.7526 24.3068V24.3171C45.7526 25.6706 44.7817 26.5988 43.3876 26.5988H40.6541ZM41.7694 25.6135H43.1038C44.0647 25.6135 44.6174 25.1468 44.6174 24.3171V24.3068C44.6174 23.4719 44.0598 23.0052 43.0988 23.0052H41.7694V25.6135Z" fill="#9C4A2D"/>
<path d="M47.0074 26.5988V19.116H48.1127V24.6905H48.1376L51.8371 19.116H52.8677V26.5988H51.7624V21.0295H51.7375L48.0331 26.5988H47.0074Z" fill="#9C4A2D"/>
<path d="M54.2967 26.5936V19.1108H55.412V25.5928H57.807V19.1108H58.9223V25.5928H61.3222V19.1108H62.4375V26.5936H54.2967Z" fill="#9C4A2D"/>
<path d="M23.2961 36.1568H22.1857V33.341H20.8862L19.0041 36.1568H17.7245L19.7261 33.1907C18.7402 32.9262 18.083 32.1069 18.083 31.0179V31.0075C18.083 29.6282 19.0589 28.674 20.4978 28.674H23.2961V36.1568ZM22.1857 32.3869V29.6541H20.7219C19.7759 29.6541 19.2232 30.1519 19.2232 31.0127V31.0231C19.2232 31.8891 19.7759 32.3869 20.7219 32.3869H22.1857Z" fill="#9C4A2D"/>
<path d="M25.8304 36.1568H24.7151V28.674H25.8304V31.8891H26.1092L28.788 28.674H30.1174L27.0453 32.2365L30.4161 36.1568H28.9722L26.1092 32.8017H25.8304V36.1568Z" fill="#9C4A2D"/>
<path d="M36.3761 36.2812C34.3396 36.2812 33.0451 34.7878 33.0451 32.4128V32.4076C33.0451 30.0327 34.3396 28.5496 36.3761 28.5496C37.9594 28.5496 39.1494 29.566 39.3784 31.0438L39.3834 31.0905H38.2781L38.2482 30.9868C38.0092 30.1104 37.342 29.5763 36.3761 29.5763C35.0417 29.5763 34.1853 30.6757 34.1853 32.4076V32.4128C34.1853 34.1448 35.0467 35.2545 36.3761 35.2545C37.3321 35.2545 37.9943 34.736 38.2681 33.787L38.2781 33.7403H39.3884L39.3784 33.7922C39.1544 35.2804 37.9644 36.2812 36.3761 36.2812Z" fill="#9C4A2D"/>
<path d="M40.4838 36.1568V28.674H45.0446V29.6749H41.5991V31.858H44.8604V32.8329H41.5991V35.156H45.0446V36.1568H40.4838Z" fill="#9C4A2D"/>
<path d="M46.2944 36.1568V28.674H50.6959V29.6749H47.4097V31.5935H49.003C50.4071 31.5935 51.3929 32.5217 51.3929 33.8648V33.8752C51.3929 35.2286 50.422 36.1568 49.0279 36.1568H46.2944ZM47.4097 35.1715H48.7441C49.705 35.1715 50.2577 34.7048 50.2577 33.8752V33.8648C50.2577 33.0299 49.7001 32.5632 48.7391 32.5632H47.4097V35.1715Z" fill="#9C4A2D"/>
<path d="M52.6427 36.1568V28.674H57.2035V29.6749H53.758V31.858H57.0193V32.8329H53.758V35.156H57.2035V36.1568H52.6427Z" fill="#9C4A2D"/>
<path d="M1.02569 8.96064H0V6.48194H0.522802C1.03565 6.16562 1.21489 5.5278 1.26966 4.53736L1.53355 0H6.21388V6.48194H7.11011V8.96064H6.0894V7.48276H1.02569V8.96064ZM2.30531 4.5944C2.25552 5.43965 2.15594 6.01524 1.81238 6.44046V6.48194H5.09856V1.00081H2.52439L2.30531 4.5944Z" fill="#9C4A2D"/>
<path d="M8.23538 7.5398C8.06609 7.5398 7.91174 7.51387 7.81714 7.48276V6.45602C7.87688 6.47157 8.01132 6.48713 8.1109 6.48713C8.78805 6.48713 9.0619 5.90116 9.13659 4.56847L9.37558 0H13.9912V7.48276H12.8759V1.00081H10.3863L10.1722 4.6307C10.0627 6.60121 9.49508 7.5398 8.23538 7.5398Z" fill="#9C4A2D"/>
<path d="M20.5536 7.48276H19.4433V4.667H18.1437L16.2616 7.48276H14.982L16.9836 4.51662C15.9977 4.25215 15.3405 3.43284 15.3405 2.34387V2.3335C15.3405 0.954142 16.3164 0 17.7554 0H20.5536V7.48276ZM19.4433 3.71286V0.98007H17.9794C17.0334 0.98007 16.4807 1.47788 16.4807 2.33869V2.34906C16.4807 3.21504 17.0334 3.71286 17.9794 3.71286H19.4433Z" fill="#9C4A2D"/>
<path d="M27.8927 7.48276V1.00081H25.692V0H31.2038V1.00081H29.008V7.48276H27.8927Z" fill="#9C4A2D"/>
<path d="M32.2096 7.48276V0H33.3149V5.57447H33.3398L37.0393 0H38.0699V7.48276H36.9646V1.91347H36.9397L33.2353 7.48276H32.2096Z" fill="#9C4A2D"/>
<path d="M39.0508 7.48276L41.4408 3.71804V3.70249L39.0757 0H40.4051L42.1827 2.89873H42.2275L44.015 0H45.2697L42.8349 3.73878V3.75953L45.2249 7.48276H43.9203L42.1279 4.62551H42.0881L40.2856 7.48276H39.0508Z" fill="#9C4A2D"/>
</svg>
