<svg width="890" height="598" viewBox="0 0 890 598" fill="none" xmlns="http://www.w3.org/2000/svg">
<path d="M483.298 231.334C476.253 266.702 436.234 312.747 450.848 349.005C451.897 349.302 452.871 349.672 453.62 350.191C455.644 351.452 457.443 353.454 458.792 355.678C460.066 357.754 460.965 360.127 461.19 362.426C461.564 366.207 461.864 368.209 457.667 368.654C457.143 368.654 456.543 368.802 455.869 368.802C450.023 369.247 439.981 369.247 433.461 368.802C432.187 368.802 431.062 368.654 430.088 368.58C424.243 367.987 421.62 365.911 419.671 360.498C417.722 355.011 415.399 349.524 413.376 343.963C411.202 337.957 409.329 331.803 408.504 325.352C407.98 321.274 407.68 317.27 407.68 313.266C406.481 301.255 405.732 289.317 400.635 278.269C400.411 277.824 400.261 277.453 400.036 277.009C390.293 257.211 369.009 250.686 348.625 256.841C345.027 257.879 340.606 259.732 337.908 262.327C360.316 256.099 383.623 262.624 392.616 283.311C393.89 286.203 394.865 289.317 395.539 292.802C399.211 311.783 389.544 330.987 373.956 341.368L368.11 344.853C375.754 345.075 384.373 343.815 391.567 344.705C401.085 345.891 409.404 354.121 410.828 363.538C411.202 365.836 409.329 367.913 407.006 367.913H276.754C265.962 366.43 254.796 364.205 245.503 358.273C246.926 357.606 248.725 358.051 250.374 357.829C251.198 357.68 253.971 357.532 254.046 356.568C246.327 356.346 238.458 353.825 232.612 348.634C231.038 347.226 227.141 342.777 226.392 340.997C226.242 340.627 226.242 339.885 226.692 340.033C228.64 341.294 231.188 342.703 233.587 342.332C224.593 337.142 218.373 329.801 218.448 318.753L223.019 322.757C220.396 316.306 217.848 308.299 221.521 301.699C223.094 298.882 225.568 294.359 227.366 291.615C232.312 284.127 241.156 278.121 249.4 275.007C229.689 298.734 243.029 331.136 273.082 334.695C271.358 294.581 287.021 254.542 310.329 222.659C317.373 213.02 325.692 204.345 333.561 195.373C343.828 183.658 351.547 169.866 356.269 155.037C359.342 145.398 362.714 134.721 363.913 131.458C365.112 128.122 366.986 118.483 368.185 116.481C368.185 116.481 381.525 90.9741 381.15 88.9721C380.775 86.9701 379.576 87.4892 373.506 86.4511C367.435 85.413 364.588 87.2667 351.697 87.4892C338.807 87.7116 334.385 82.2989 330.114 79.7037C325.842 77.1086 320.596 72.0666 320.821 67.2471C321.12 62.4275 335.51 55.087 339.931 52.4177C344.428 49.7484 352.447 45.6703 353.046 44.0391C353.646 42.4079 359.267 36.1795 360.466 35.5864C361.665 34.9932 360.016 33.0654 360.016 28.32C360.016 23.5746 379.951 10.4506 381.974 9.5608C383.998 8.67104 384.373 3.7032 392.916 0.811474C401.46 -2.08025 403.183 3.7032 405.132 3.48076C407.081 3.25832 413.975 1.92368 421.769 2.14612C429.638 2.36856 437.358 10.0057 440.58 15.2701C443.803 20.4604 440.58 22.2399 436.683 25.7248C432.711 29.2839 435.034 39.7386 434.285 45.7445C433.536 51.6762 416.149 60.4997 416.149 60.4997C416.149 60.4997 420.87 60.3514 431.137 54.2714C441.405 48.1913 436.833 32.1756 439.381 30.0995C441.929 28.0234 442.604 29.2097 449.648 38.9971C456.618 48.7103 456.618 63.169 459.991 72.8081C462.764 80.7418 467.035 118.779 468.609 124.414C469.958 129.308 471.232 134.647 472.431 140.133C484.272 169.718 489.144 202.343 483.373 231.26L483.298 231.334Z" fill="#9C4A2D"/>
<path d="M670.354 319.124C667.881 341.813 642.625 368.802 618.868 368.802H505.254C500.907 368.802 504.504 359.831 505.778 357.606C508.776 352.119 509.975 352.712 514.547 350.414C520.467 347.893 526.987 346.855 533.208 348.709C542.501 347.893 529.91 341.442 527.362 338.55C511.549 319.94 508.926 287.76 534.856 277.453C546.098 273.005 562.585 277.528 563.635 276.564C566.782 273.894 558.014 271.225 556.815 270.78C530.36 261.586 510.275 278.195 504.804 303.034C502.181 314.972 497.31 359.756 489.965 367.171C487.642 369.47 477.75 369.766 475.426 368.061C474.752 367.616 470.63 356.865 470.63 352.861C470.63 346.262 477.45 331.21 477.45 320.978C477.45 312.896 473.852 300.958 472.578 291.838C471.304 282.718 472.653 284.275 474.302 280.864C475.951 277.453 475.576 278.195 476.251 276.86C479.923 269.223 483.445 261.808 486.443 254.616C489.441 247.35 491.839 240.306 493.263 233.336C499.033 204.27 495.061 170.163 482.096 137.316C480.822 131.384 479.548 126.342 478.274 121.893C477.824 120.114 476.55 111.513 475.576 104.543C475.276 102.17 474.902 99.9458 474.602 97.7956C474.302 95.6453 474.452 93.1243 475.276 90.8999L492.214 45.6703C493.638 41.444 512.673 19.5706 516.195 23.278L517.919 61.8343C527.962 62.5017 547.822 65.7641 554.267 73.6237C556.44 76.293 557.265 80.5193 559.513 83.4852C568.206 94.978 585.218 94.0882 596.235 100.391C604.629 105.21 591.739 123.969 586.792 128.27C566.408 146.065 523.765 119.076 529.685 166.678C533.058 193.371 580.947 228.887 598.408 249.648C621.191 276.712 627.187 307.335 621.266 341.887C653.492 339.959 665.033 302.367 651.768 276.49C667.057 282.792 671.853 304.369 670.204 319.05L670.354 319.124Z" fill="#9C4A2D"/>
<path d="M524.742 56.0508C526.016 57.0147 539.956 60.3514 540.93 58.5718C541.155 53.7523 543.928 28.2458 541.679 26.6145C531.862 26.7628 516.199 49.6001 524.742 55.9767V56.0508Z" fill="#9C4A2D"/>
<path d="M0 594.664V444.654H20.765L70.6809 571.065H71.2799L121.196 444.654H141.961V594.664H125.189V478.752H124.59L78.5676 594.664H63.3932L17.3707 478.752H16.7717V594.664H0Z" fill="#9C4A2D"/>
<path d="M194.572 596.743C173.907 596.743 160.03 583.748 160.03 564.1V563.892C160.03 545.492 173.807 533.953 197.667 532.497L227.417 530.73V521.686C227.417 508.483 219.131 500.479 204.655 500.479C191.278 500.479 182.892 507.132 180.895 516.8L180.695 517.736H163.924L164.024 516.592C165.521 498.815 180.396 484.469 204.855 484.469C229.413 484.469 244.787 498.296 244.787 519.919V594.664H227.417V577.095H227.017C220.928 588.946 208.449 596.743 194.572 596.743ZM177.8 564.1C177.8 574.496 185.987 581.045 198.466 581.045C214.838 581.045 227.417 569.298 227.417 553.601V544.764L199.663 546.532C185.787 547.363 177.8 553.809 177.8 563.892V564.1Z" fill="#9C4A2D"/>
<path d="M266.85 594.664V486.548H284.221V504.845H284.62C288.114 492.37 297.099 484.469 308.78 484.469C311.775 484.469 314.37 484.989 315.768 485.197V502.766C314.37 502.246 310.676 501.726 306.483 501.726C293.006 501.726 284.221 511.498 284.221 527.923V594.664H266.85Z" fill="#9C4A2D"/>
<path d="M367.98 596.743C338.529 596.743 319.861 574.912 319.861 540.502V540.398C319.861 506.3 338.929 484.469 367.78 484.469C393.637 484.469 408.911 502.35 411.107 520.854L411.207 521.686H394.236L394.036 520.854C391.44 510.043 383.054 500.479 367.78 500.479C349.711 500.479 337.631 516.072 337.631 540.606V540.71C337.631 565.868 350.01 580.734 367.98 580.734C382.156 580.734 391.241 572.417 394.136 560.358L394.335 559.526H411.407L411.307 560.254C408.512 580.837 391.44 596.743 367.98 596.743Z" fill="#9C4A2D"/>
<path d="M470.108 596.743C440.258 596.743 422.288 575.016 422.288 541.022V540.918C422.288 507.444 440.657 484.469 469.01 484.469C497.362 484.469 514.633 506.404 514.633 538.839V545.492H439.859C440.258 567.739 452.038 580.734 470.507 580.734C483.685 580.734 492.969 573.872 495.964 564.62L496.264 563.685H513.335L513.135 564.724C509.741 582.605 492.77 596.743 470.108 596.743ZM468.91 500.479C453.835 500.479 442.055 511.186 440.158 531.354H496.962C495.265 510.355 484.084 500.479 468.91 500.479Z" fill="#9C4A2D"/>
<path d="M533.102 594.664V444.654H550.472V594.664H533.102Z" fill="#9C4A2D"/>
<path d="M603.633 564.828C602.235 562.645 600.363 559.292 598.017 554.77C595.322 556.538 593.225 558.487 591.728 560.618C589.781 563.425 588.907 566.439 589.107 569.662C589.307 573.145 590.305 575.848 592.102 577.771C593.949 579.642 596.095 580.63 598.541 580.734C600.538 580.837 602.684 580.344 604.98 579.252C606.727 578.42 608.599 576.991 610.596 574.964C607.851 571.325 605.529 567.947 603.633 564.828ZM596.52 551.652C594.224 546.87 593.026 542.815 592.926 539.489C592.876 536.11 593.874 533.329 595.921 531.146C598.017 528.963 600.862 527.949 604.456 528.105C607.252 528.209 609.548 529.197 611.345 531.068C613.192 532.939 614.115 535.356 614.115 538.319C614.115 541.438 613.117 544.063 611.12 546.194C609.223 548.169 606.103 550.326 601.761 552.665C603.907 556.667 605.554 559.656 606.702 561.631C608.45 564.542 610.621 567.947 613.216 571.845C614.365 570.286 615.438 568.415 616.436 566.232C617.584 563.477 618.158 561.268 618.158 559.604C618.158 558.357 617.884 557.369 617.335 556.641C616.835 555.862 615.937 555.472 614.639 555.472C613.94 555.472 613.591 555.16 613.591 554.536C613.591 553.913 613.915 553.601 614.564 553.601H626.844C627.792 553.601 628.266 553.913 628.266 554.536C628.266 555.16 627.792 555.472 626.844 555.472C625.795 555.472 624.897 555.706 624.148 556.174C623.399 556.589 622.775 557.863 622.276 559.994C620.879 565.504 618.533 570.442 615.238 574.808C617.834 578.083 620.429 579.954 623.025 580.422C623.923 580.578 624.897 580.552 625.945 580.344C627.043 580.084 628.066 579.642 629.015 579.018C630.013 578.498 630.687 578.576 631.036 579.252C631.436 579.928 631.286 580.526 630.587 581.045C629.988 581.565 629.015 582.111 627.667 582.683C626.369 583.255 624.747 583.54 622.8 583.54C619.306 583.54 615.987 581.643 612.842 577.849C608.649 582.475 603.932 584.788 598.691 584.788C594.348 584.788 590.879 583.358 588.284 580.5C585.738 577.641 584.465 574.158 584.465 570.052C584.465 565.79 585.738 561.995 588.284 558.669C590.28 556.07 593.026 553.731 596.52 551.652ZM600.263 549.624C604.207 547.545 606.877 545.674 608.275 544.011C609.822 542.243 610.596 540.476 610.596 538.709C610.596 536.63 609.997 534.94 608.799 533.641C607.651 532.29 606.079 531.614 604.082 531.614C602.035 531.614 600.388 532.29 599.14 533.641C597.942 534.94 597.343 536.838 597.343 539.333C597.343 542.139 598.317 545.57 600.263 549.624Z" fill="#9C4A2D"/>
<path d="M721.484 597.159C681.451 597.159 655.695 566.803 655.695 519.607V519.503C655.695 472.306 681.352 442.159 721.484 442.159C751.434 442.159 774.694 461.079 780.185 489.459L780.385 490.499H762.215L761.517 488.212C755.926 470.019 741.75 459.416 721.484 459.416C692.732 459.416 674.164 483.014 674.164 519.503V519.607C674.164 556.096 692.832 579.902 721.484 579.902C741.65 579.902 755.626 569.506 761.916 549.754L762.215 548.819H780.385L780.185 549.858C774.694 578.55 751.633 597.159 721.484 597.159Z" fill="#9C4A2D"/>
<path d="M841.981 596.743C813.13 596.743 793.862 575.016 793.862 540.606V540.398C793.862 505.988 813.229 484.469 841.881 484.469C870.533 484.469 890 505.884 890 540.398V540.606C890 575.12 870.633 596.743 841.981 596.743ZM842.081 580.734C860.35 580.734 872.23 565.972 872.23 540.606V540.398C872.23 515.033 860.25 500.479 841.881 500.479C823.812 500.479 811.632 515.137 811.632 540.398V540.606C811.632 566.076 823.712 580.734 842.081 580.734Z" fill="#9C4A2D"/>
</svg>
