<svg width="16" height="16" viewBox="0 0 16 16" fill="none" xmlns="http://www.w3.org/2000/svg">
<g clip-path="url(#clip0_480_1176)">
<path d="M15.2502 5.44679L10.9671 4.86834C10.7001 4.83443 10.484 4.66422 10.3668 4.4089L8.70012 0.578431C8.43318 -0.0346072 7.58358 -0.0346072 7.31665 0.578431L5.63365 4.42558C5.53339 4.66361 5.30032 4.85111 5.03338 4.88502L0.750217 5.44686C0.116751 5.53196 -0.133249 6.31521 0.316617 6.77465L3.46628 9.88972C3.64988 10.0772 3.73322 10.3325 3.68308 10.5879L2.84975 14.9457C2.71629 15.6092 3.41615 16.1032 3.98322 15.7628L7.59972 13.5327C7.83278 13.3798 8.14985 13.3798 8.38292 13.5327L11.9994 15.7628C12.5658 16.1032 13.2664 15.6099 13.1329 14.9457L12.2996 10.5879C12.2494 10.3325 12.3328 10.0599 12.5164 9.88972L15.666 6.77465C16.1335 6.31521 15.8835 5.53196 15.25 5.44686L15.2502 5.44679Z" fill="#9C4A2D"/>
</g>
<defs>
<clipPath id="clip0_480_1176">
<rect width="16" height="16" fill="white"/>
</clipPath>
</defs>
</svg>
