<svg width="16" height="16" viewBox="0 0 16 16" fill="none" xmlns="http://www.w3.org/2000/svg">
<path d="M15.2659 5.37577C15.5859 5.04522 15.8306 4.42299 15.8306 3.95633V1.77855C15.8306 1.33133 15.4165 0.981328 14.9082 1.00077L13.3271 1.11744C12.9129 1.13688 12.2541 1.33133 11.8776 1.52577L8.41412 3.31466C8.11294 3.47022 7.56706 3.47022 7.26588 3.31466L3.80235 1.52577C3.42588 1.33133 2.78588 1.15633 2.35294 1.11744L0.922353 1.02022C0.414118 0.981328 0 1.33133 0 1.79799V3.99522C0 4.46188 0.244706 5.08411 0.545882 5.43411L1.12941 6.07577C1.14824 6.19244 1.14824 6.28966 1.16706 6.40633C1.03529 6.44522 0.696471 6.63966 0.696471 6.63966C0.32 6.85355 0.0188235 7.41744 0.0188235 7.90355V12.3563C0.0188235 12.8424 0.338823 13.4063 0.752941 13.6202L2.35294 14.4952C2.67294 14.6702 3.16235 14.7869 3.57647 14.7869C3.67059 14.7869 3.74588 14.7869 3.82118 14.7674L7.15294 14.3008C7.51059 14.2424 8.16941 14.2424 8.54588 14.3008L11.8776 14.748C11.9529 14.7674 12.0471 14.7674 12.1412 14.7674C12.5553 14.7674 13.0447 14.6508 13.3459 14.4952L15.0776 13.6008C15.4918 13.3869 15.8306 12.8424 15.8306 12.3563V7.90355C15.8306 7.41744 15.5106 6.85355 15.0965 6.62022C15.0965 6.62022 14.7765 6.44522 14.72 6.42577C14.7576 6.25077 14.7765 6.05633 14.7953 5.86188L15.2659 5.37577ZM1.65647 6.75633C1.63765 6.73688 1.6 6.60077 1.58118 6.56188C1.58118 6.54244 1.56235 6.50355 1.56235 6.48411C1.54353 6.42577 1.50588 6.23133 1.50588 6.21188C1.48706 6.11466 1.46824 5.76466 1.46824 5.70633V5.51188C1.46824 5.41466 1.48706 5.35633 1.48706 5.31744C1.50588 5.33688 1.69412 5.58966 1.76941 5.72577C1.76941 5.86188 1.80706 6.54244 1.80706 6.54244C1.80706 6.54244 1.82588 6.97022 1.84471 7.00911C1.84471 7.04799 1.84471 7.10633 1.86353 7.16466C1.84471 7.12577 1.80706 7.06744 1.78824 7.02855C1.75059 6.93133 1.67529 6.77577 1.65647 6.75633ZM1.92 8.38966C1.90118 8.46744 1.90118 8.52577 1.88235 8.60355C1.84471 8.64244 1.80706 8.68133 1.78824 8.70077C1.78824 8.68133 1.76941 8.66188 1.76941 8.64244C1.73176 8.48688 1.69412 8.17577 1.69412 7.98133C1.69412 7.88411 1.71294 7.76744 1.73176 7.63133C1.80706 7.70911 1.88235 7.76744 1.97647 7.78688C1.99529 7.84522 2.01412 7.88411 2.03294 7.94244L1.92 8.38966ZM2.95529 9.22577C2.95529 9.26466 2.95529 9.32299 2.93647 9.36188C2.80471 9.47855 2.65412 9.63411 2.56 9.71188C2.46588 9.80911 2.33412 9.90633 2.25882 9.94522L2.24 9.92577C2.20235 9.80911 2.14588 9.59522 2.12706 9.43966C2.10824 9.36188 2.14588 9.08966 2.20235 8.77855C2.22118 8.68133 2.24 8.58411 2.25882 8.48688L2.27765 8.37022C2.31529 8.40911 2.33412 8.42855 2.37176 8.448C2.46588 8.52577 2.56 8.58411 2.65412 8.60355C2.71059 8.62299 2.76706 8.62299 2.84235 8.62299C2.89882 8.62299 2.95529 8.62299 3.03059 8.60355C3.01176 8.83688 2.97412 9.05077 2.95529 9.22577ZM3.21882 8.05911C3.21882 8.11744 3.23765 8.17577 3.23765 8.21466C3.21882 8.21466 2.95529 8.27299 2.86118 8.27299C2.80471 8.27299 2.76706 8.27299 2.76706 8.27299C2.71059 8.25355 2.57882 8.15633 2.48471 8.03966C2.46588 8.00077 2.44706 7.98133 2.42824 7.94244C2.42824 7.94244 2.37176 7.80633 2.33412 7.70911C2.33412 7.70911 2.29647 7.57299 2.27765 7.49522C2.25882 7.41744 2.22118 7.14522 2.22118 7.10633C2.22118 7.04799 2.18353 6.52299 2.18353 6.52299L2.16471 6.09522C2.14588 5.93966 2.14588 5.78411 2.14588 5.64799C2.14588 5.41466 2.16471 5.25911 2.16471 5.22022C2.16471 5.22022 2.20235 5.22022 2.22118 5.23966C2.31529 5.298 2.57882 5.60911 2.80471 5.97855L3.12471 6.48411C3.16235 6.54244 3.31294 6.83411 3.33176 6.89244V6.91188C3.33176 6.91188 3.27529 7.24244 3.25647 7.30077C3.25647 7.33966 3.23765 7.45633 3.23765 7.49522C3.23765 7.53411 3.21882 7.78688 3.21882 7.84522C3.2 7.92299 3.21882 8.00077 3.21882 8.05911ZM4.27294 10.6647C4.14118 10.9563 3.91529 11.2091 3.84 11.248C3.76471 11.2869 3.55765 11.3063 3.53882 11.3063C3.50118 11.2869 3.40706 11.1702 3.35059 11.0147C3.29412 10.8397 3.23765 10.548 3.23765 10.3536C3.23765 10.198 3.25647 9.86744 3.27529 9.53688C3.27529 9.43966 3.29412 9.34244 3.29412 9.26466C3.29412 9.24522 3.35059 8.85633 3.38824 8.68133C3.42588 8.73966 3.44471 8.798 3.48235 8.83688C3.52 8.89522 3.55765 8.93411 3.61412 8.97299C3.76471 9.08966 4.02824 9.20633 4.29177 9.26466C4.27294 9.36188 4.29176 9.47855 4.31059 9.59522L4.42353 10.0036C4.44235 10.0619 4.44235 10.1008 4.46118 10.1591C4.44235 10.3147 4.34824 10.4897 4.27294 10.6647ZM4.38588 8.91466C4.17882 8.87577 3.95294 8.77855 3.85882 8.70077C3.84 8.68133 3.57647 8.13688 3.57647 8.13688C3.57647 8.09799 3.55765 7.90355 3.55765 7.90355C3.55765 7.86466 3.57647 7.43688 3.59529 7.37855C3.59529 7.32022 3.80235 6.42577 3.80235 6.42577C3.85882 6.15355 3.93412 5.95911 3.99059 5.86188C4.06588 5.90077 4.17882 5.95911 4.29177 6.03688C4.42353 6.13411 4.70588 6.46466 4.87529 6.81466C4.95059 6.95077 4.98823 7.12577 5.02588 7.32022C5.04471 7.39799 5.04471 7.45633 5.06353 7.53411C5.06353 7.55355 5.04471 8.00077 5.04471 8.00077L5.00706 8.33133C5.00706 8.38966 4.95059 8.79799 4.93176 8.85633C4.91294 8.91466 4.89412 8.95355 4.89412 8.99244C4.87529 8.99244 4.83765 8.99244 4.8 8.99244C4.76235 8.93411 4.40471 8.91466 4.38588 8.91466ZM6.08 10.5286C6.06118 10.7036 5.98588 10.9952 5.92941 11.1508C5.89177 11.2286 5.74118 11.3258 5.55294 11.3063C5.38353 11.2869 5.17647 11.1508 5.12 10.9952C5.06353 10.8397 4.95059 10.5091 4.85647 10.1785C4.83765 10.0813 4.66824 9.49799 4.66824 9.49799C4.64941 9.43966 4.64941 9.36188 4.64941 9.30355H4.66824C4.70588 9.30355 4.72471 9.30355 4.76235 9.30355C4.8 9.30355 5.00706 9.28411 5.02588 9.26466C5.06353 9.24522 5.08235 9.22577 5.12 9.18688C5.15765 9.24522 5.19529 9.30355 5.27059 9.323C5.42118 9.40077 5.76 9.47855 6.08 9.53688C6.09882 9.94522 6.09882 10.373 6.08 10.5286ZM5.96706 9.14799C5.72235 9.08966 5.51529 9.05077 5.45882 9.01188C5.44 8.99244 5.44 8.973 5.42118 8.93411C5.40235 8.89522 5.36471 8.38966 5.36471 8.31188C5.36471 8.31188 5.44 7.47577 5.45882 7.41744C5.49647 7.04799 5.55294 6.62022 5.57176 6.44522C5.59059 6.28966 5.76 6.07577 5.92941 5.99799C6.02353 5.93966 6.17412 5.92022 6.34353 5.92022C6.45647 5.92022 6.58823 5.93966 6.66353 5.95911C6.88941 6.03688 7.24706 6.34799 7.43529 6.63966C7.60471 6.93133 7.75529 7.43688 7.77412 7.82577C7.77412 7.84522 7.77412 8.52577 7.77412 8.56466C7.75529 8.75911 7.73647 8.93411 7.69882 9.05077C7.68 9.14799 7.64235 9.20633 7.62353 9.22577C7.58588 9.24522 7.43529 9.30355 7.15294 9.30355C7.04 9.30355 6.94588 9.30355 6.83294 9.28411C6.83294 9.28411 6.04235 9.16744 5.96706 9.14799ZM7.79294 10.2174C7.77412 10.5091 7.71765 10.8591 7.62353 11.0341C7.54824 11.1897 7.36 11.3258 7.19059 11.3258H7.17176C7.05882 11.3258 6.81412 11.073 6.72 10.723L6.47529 9.84799C6.45647 9.77022 6.45647 9.69244 6.47529 9.63411C6.47529 9.63411 7.02118 9.69244 7.15294 9.69244C7.30353 9.69244 7.56706 9.67299 7.73647 9.59522C7.75529 9.69244 7.77412 9.80911 7.77412 9.94522C7.77412 10.023 7.77412 10.1786 7.79294 10.2174ZM9.43059 9.84799L9.18588 10.723C9.09176 11.0924 8.84706 11.3258 8.73412 11.3258H8.71529C8.54588 11.3258 8.35765 11.1897 8.30118 11.0536C8.22588 10.8786 8.15059 10.5286 8.13176 10.2369C8.13176 10.198 8.13176 10.0036 8.13176 9.96466C8.13176 9.82855 8.15059 9.69244 8.16941 9.61466C8.35765 9.69244 8.60235 9.71188 8.75294 9.71188C8.88471 9.71188 8.99765 9.71188 9.11059 9.69244L9.41177 9.65355C9.44941 9.69244 9.44941 9.75077 9.43059 9.84799ZM9.37412 9.24522C9.37412 9.24522 8.86588 9.30355 8.77176 9.30355C8.48941 9.30355 8.32 9.24522 8.30118 9.22577C8.28235 9.20633 8.26353 9.14799 8.22588 9.05077C8.18824 8.93411 8.16941 8.75911 8.15059 8.56466C8.15059 8.52577 8.15059 7.86466 8.15059 7.82577C8.16941 7.45633 8.32 6.93133 8.48941 6.63966C8.67765 6.34799 9.03529 6.01744 9.26118 5.95911C9.35529 5.92022 9.46824 5.92022 9.58118 5.92022C9.75059 5.92022 9.90118 5.95911 9.99529 5.99799C10.1647 6.07577 10.3153 6.30911 10.3529 6.44522C10.3718 6.62022 10.4282 6.98966 10.4659 7.33966C10.4659 7.39799 10.5224 7.96188 10.5224 7.96188L10.56 8.31188C10.56 8.38966 10.5224 8.89522 10.5224 8.93411C10.5035 8.973 10.5035 8.99244 10.4847 8.99244C10.4094 9.03133 10.2024 9.08966 9.95765 9.12855C9.88235 9.14799 9.80706 9.16744 9.73176 9.16744C9.69412 9.20633 9.37412 9.24522 9.37412 9.24522ZM11.2188 9.49799L11.0306 10.1202L10.8612 10.7036C10.7482 11.073 10.5035 11.3258 10.3718 11.3258C10.2024 11.3452 10.0329 11.248 9.99529 11.1702C9.93882 11.0147 9.86353 10.723 9.84471 10.548C9.82588 10.3924 9.82588 9.96466 9.84471 9.57577C10.1647 9.51744 10.5035 9.43966 10.6541 9.36188C10.7106 9.32299 10.7482 9.28411 10.8047 9.22577C10.8235 9.26466 10.8612 9.28411 10.8988 9.30355C10.9176 9.32299 11.1247 9.34244 11.1624 9.34244C11.1812 9.34244 11.2188 9.34244 11.2565 9.34244C11.2376 9.38133 11.2376 9.43966 11.2188 9.49799ZM11.1435 8.93411C11.1059 8.93411 11.0682 8.93411 11.0494 8.93411C11.0306 8.91466 10.9365 8.35077 10.9176 8.27299L10.8612 7.70911C10.8612 7.70911 10.88 7.43688 10.88 7.37855C10.8988 7.30077 10.8988 7.24244 10.9176 7.16466C10.9553 7.00911 10.9929 6.85355 11.0494 6.75633C11.2188 6.42577 11.5012 6.07577 11.6329 5.97855C11.7459 5.90077 11.8588 5.84244 11.9341 5.80355C11.9718 5.90077 12.0471 6.09522 12.1224 6.36744C12.1224 6.36744 12.2729 7.06744 12.2918 7.08688C12.2918 7.10633 12.3671 7.61188 12.3671 7.63133V7.65077C12.3671 7.70911 12.3671 7.78688 12.3671 7.84522V7.86466C12.3859 8.098 12.1788 8.52577 12.1412 8.56466C12.1224 8.60355 12.0847 8.64244 12.0659 8.66188C11.9906 8.73966 11.5012 8.87577 11.4824 8.87577C11.4824 8.87577 11.4824 8.87577 11.4635 8.87577C11.4259 8.93411 11.1812 8.93411 11.1435 8.93411ZM12.4235 11.0341C12.3294 11.1702 12.1788 11.248 12.1035 11.248H12.0847C11.9906 11.2091 11.7835 10.9563 11.6518 10.6647C11.5576 10.4508 11.4635 10.2369 11.4071 10.1008L11.5576 9.59522C11.5953 9.47855 11.5953 9.38133 11.5953 9.26466C11.8588 9.22577 12.1412 9.10911 12.2918 8.97299C12.3294 8.93411 12.3859 8.89522 12.4235 8.83688C12.4612 8.77855 12.4988 8.73966 12.5176 8.68133C12.5553 8.85633 12.5929 9.05077 12.6118 9.20633C12.6118 9.22577 12.6306 9.43966 12.6306 9.53688C12.6494 9.86744 12.6682 10.198 12.6682 10.3536C12.6682 10.5091 12.5741 10.8202 12.4235 11.0341ZM13.7976 9.43966C13.7788 9.59522 13.7224 9.80911 13.6847 9.92577C13.6847 9.94522 13.6659 9.94522 13.6659 9.94522C13.5906 9.90633 13.4588 9.80911 13.3647 9.71188C13.2706 9.63411 13.12 9.49799 12.9882 9.36188C12.9882 9.32299 12.9882 9.26466 12.9694 9.22577C12.9506 9.03133 12.9129 8.83688 12.8753 8.62299C12.9318 8.62299 13.0071 8.64244 13.0635 8.64244C13.1388 8.64244 13.1953 8.64244 13.2518 8.62299C13.3459 8.60355 13.44 8.54522 13.5341 8.46744C13.5718 8.44799 13.5906 8.40911 13.6282 8.38966L13.6471 8.50633C13.6659 8.60355 13.6847 8.70077 13.7035 8.798C13.7788 9.08966 13.7976 9.34244 13.7976 9.43966ZM13.76 6.46466C13.76 6.46466 13.7035 7.20355 13.6847 7.26188C13.6659 7.33966 13.6659 7.41744 13.6471 7.47577C13.6282 7.55355 13.6094 7.61188 13.5906 7.67022C13.5906 7.67022 13.4588 7.98133 13.44 8.02022C13.3459 8.15633 13.2141 8.25355 13.1576 8.25355C13.1388 8.25355 13.12 8.25355 13.0635 8.25355C12.9694 8.25355 12.7247 8.19522 12.6871 8.19522C12.6871 8.15633 12.7059 8.09799 12.7059 8.03966C12.7059 7.96188 12.7059 7.67022 12.7059 7.59244C12.7059 7.53411 12.6682 7.26188 12.6682 7.20355C12.6494 7.12577 12.5929 6.85355 12.5929 6.85355C12.5929 6.83411 12.7812 6.48411 12.8 6.44522L13.12 5.93966C13.3459 5.57022 13.6094 5.25911 13.7035 5.20077C13.7412 5.18133 13.76 5.18133 13.76 5.16188C13.7788 5.20077 13.7788 5.37577 13.7976 5.60911C13.7976 5.76466 13.76 6.46466 13.76 6.46466ZM14.1741 8.64244C14.1741 8.66188 14.1553 8.68133 14.1553 8.70077C14.1176 8.68133 14.0988 8.64244 14.0612 8.60355C14.0424 8.52577 14.0235 8.46744 14.0047 8.38966L13.8918 7.94244C13.9106 7.90355 13.9294 7.84522 13.9482 7.78688C14.0424 7.74799 14.1365 7.68966 14.1929 7.63133C14.2118 7.76744 14.2306 7.88411 14.2306 7.98133C14.2306 8.17577 14.1929 8.48688 14.1741 8.64244ZM14.4376 5.97855C14.4188 6.09522 14.4188 6.19244 14.4 6.28966C14.4 6.28966 14.3247 6.62022 14.3059 6.65911C14.2871 6.67855 14.1741 6.91188 14.1553 6.97022C14.1365 7.02855 14.0988 7.06744 14.08 7.10633C14.08 7.04799 14.0988 6.89244 14.0988 6.87299L14.1176 6.58133C14.1176 6.58133 14.1553 5.80355 14.1553 5.70633C14.2118 5.57022 14.4188 5.298 14.4376 5.298C14.4565 5.33688 14.4565 5.39522 14.4565 5.49244C14.4565 5.49244 14.4565 5.90077 14.4376 5.97855Z" fill="#9C4A2D"/>
</svg>
