<svg width="32" height="32" viewBox="0 0 32 32" fill="none" xmlns="http://www.w3.org/2000/svg">
<path d="M16 0C11.7575 0 7.685 1.68675 4.6875 4.68625C1.68693 7.68696 0.000858621 11.7565 0 16C0 20.2417 1.6875 24.3142 4.6875 27.3137C7.685 30.3132 11.7575 32 16 32C20.2425 32 24.315 30.3132 27.3125 27.3137C30.3125 24.3142 32 20.2417 32 16C32 11.7583 30.3125 7.68575 27.3125 4.68625C24.315 1.68675 20.2425 0 16 0Z" fill="#FFCFA8"/>
<path d="M7.24213 15.8311C11.9071 13.7991 15.0171 12.4594 16.5721 11.8121C21.0171 9.96381 21.9396 9.64281 22.5421 9.63193C22.6746 9.62981 22.9696 9.66256 23.1621 9.81818C23.3221 9.94943 23.3671 10.1269 23.3896 10.2516C23.4096 10.3761 23.4371 10.6598 23.4146 10.8813C23.1746 13.4113 22.1321 19.5508 21.6021 22.3846C21.3796 23.5836 20.9371 23.9856 20.5096 24.0248C19.5796 24.1103 18.8746 23.4108 17.9746 22.8211C16.5671 21.8978 15.7721 21.3233 14.4046 20.4226C12.8246 19.3816 13.8496 18.8093 14.7496 17.8743C14.9846 17.6296 19.0796 13.9058 19.1571 13.5681C19.1671 13.5258 19.1771 13.3683 19.0821 13.2853C18.9896 13.2021 18.8521 13.2306 18.7521 13.2531C18.6096 13.2851 16.3621 14.7721 12.0021 17.7138C11.3646 18.1523 10.7871 18.3661 10.2671 18.3548C9.69713 18.3426 8.59713 18.0318 7.77963 17.7663C6.77963 17.4406 5.98213 17.2683 6.05213 16.7151C6.08713 16.4271 6.48463 16.1323 7.24213 15.8311Z" fill="#9C4A2D"/>
</svg>
