<svg width="16" height="16" viewBox="0 0 16 16" fill="none" xmlns="http://www.w3.org/2000/svg">
<path d="M8 0C3.58128 0 0 3.58128 0 8C0 12.4187 3.58128 16 8 16C12.4187 16 16 12.4187 16 8C16 3.58128 12.4187 0 8 0ZM12.1531 10.7906C11.9125 11.1187 11.4531 11.1937 11.1219 10.9562L7.58443 8.39363C7.38755 8.23738 7.27194 8.00301 7.26256 7.75301V3.38421C7.26256 2.97483 7.59381 2.6467 8.00006 2.6467C8.40632 2.6467 8.73757 2.97795 8.73757 3.38421V7.40613L11.9875 9.75925C12.3187 9.99987 12.3906 10.4593 12.1531 10.7906Z" fill="#9C4A2D"/>
</svg>
