<svg width="49" height="30" viewBox="0 0 49 30" fill="none" xmlns="http://www.w3.org/2000/svg">
<g clip-path="url(#clip0_480_491)">
<path d="M47.25 5.01482C46.8 4.65889 46.2 3.54025 45.6 3.18432C45 2.77754 45.25 1.86228 44.8 1.70974C44.5 1.60805 44.05 1.35381 43.45 0.997878C43.55 0.794489 43.6 0.591099 43.65 0.489405C43.85 -0.0699164 43.4 -0.375 43.4 -0.375L42.45 0.540252C42.4 0.540252 42.35 0.489405 42.35 0.489405C41 -0.120764 41 0.336863 39.95 1.15042C38.9 1.96398 38.3 1.70974 36.9 1.25212C32.7 -0.171611 32.3 3.69279 24.6 3.69279C21.35 3.69279 9.85 3.69279 6.95 3.69279C6 3.69279 5.15 3.74364 4.45 3.89618C3.2 3.99787 2.35 4.25211 1.9 5.11652C0.75 7.25211 0.5 10.7606 0.95 11.9809C1.4 13.2012 0.95 19.3538 0.95 19.3538C0.95 19.3538 0 20.8284 0 22.7606C0 22.7606 1.2 22.9639 1.45 21.1843C1.65 20.0656 1.95 10.8114 1.95 10.8114H2.5C2.5 10.9131 2.5 10.964 2.5 11.0657C2.5 14.0657 2.5 18.3368 2.5 19.4046C2.5 20.7775 4.05 29.0656 4.05 29.0656C4.15 29.3707 4.4 29.5741 4.75 29.5741H7.2C7.2 28.4555 6.25 28.2012 5.95 26.8792C5.7 25.6589 5.45 24.4894 5.45 24.1843C5.45 23.625 5.95 23.1673 6.4 22.2521L7.6 18.1334C7.65 17.9301 7.95 18.0317 7.9 18.1843L7.55 20.3707L9.2 27.6419L9.55 28.9131C9.7 29.269 10.05 29.5233 10.45 29.5233H13C13 28.4046 11.9 27.9978 11.7 26.9809C11.5 26.0656 11.1 24.1334 11.4 23.1165C11.6 22.5063 12.1 20.5233 12.5 18.9978C14.4 19.9131 16.4 20.9809 17.65 20.9809C19.75 20.9809 23.6 19.1504 25.3 19.0487C25.5 19.608 25.7 20.269 25.9 20.93C26.25 22.0995 26.7 21.947 27.15 24.1843C27.6 26.3707 28 28.4555 28 28.5063C28.1 29.269 28.65 29.5741 29.2 29.5741H30.75C30.75 29.5741 30.05 25.4046 30 24.4894L29.6 20.6758L28.5 20.2182C28.4 20.1673 28.45 19.9639 28.6 20.0148L30.05 20.4216L31 26.5233C31.2 27.6927 31.4 28.5572 31.4 28.5572C31.55 29.269 32 29.5741 32.55 29.5741H34.75C34.75 28.0995 33.85 28.6588 33.6 24.8453C33.5 23.3199 33.7 22.2012 33.95 21.4385C35.7 20.7267 36.7 17.5233 37.15 16.2012C37.6 14.7267 39.85 10.2013 40.9 9.54024C41.5 9.1843 41.85 8.77753 42.45 8.87922C44.1 9.13346 45.05 8.72668 45.8 8.37075C46.55 8.01482 46.3 8.37075 46.9 8.37075C47.5 8.37075 48.8 6.64194 48.75 6.23516C48.75 5.87923 47.7 5.37075 47.25 5.01482Z" fill="#DCEBE7"/>
</g>
<defs>
<clipPath id="clip0_480_491">
<rect width="49" height="30" fill="white"/>
</clipPath>
</defs>
</svg>
