<svg width="28" height="30" viewBox="0 0 28 30" fill="none" xmlns="http://www.w3.org/2000/svg">
<g clip-path="url(#clip0_480_876)">
<path d="M25.084 19.0078C24.4922 19.7988 23.8418 20.5313 23.1387 21.1934V27.0703C23.1387 27.3516 23.1152 27.6328 23.0625 27.9023C23.1035 27.9199 23.1445 27.9434 23.1855 27.9609C23.5664 28.125 23.9648 28.2129 24.3691 28.2129C24.7266 28.2129 25.084 28.1484 25.4297 28.0137C26.1621 27.7324 26.7363 27.1816 27.0527 26.4609C27.3691 25.7461 27.3867 24.9492 27.1055 24.2168L25.084 19.0078Z" fill="#EFE4D2"/>
<path d="M8.9591 24.3691L7.93371 27.0176C7.6759 27.6797 7.28332 28.2715 6.77942 28.7461C7.31262 29.502 8.18567 30 9.18176 30C10.7989 30 12.1114 28.6875 12.1114 27.0703V25.084C11.045 24.9727 9.9845 24.7324 8.9591 24.3691Z" fill="#EFE4D2"/>
<path d="M21.2637 17.9238C21.2637 17.4082 21.6855 16.9863 22.2012 16.9863C22.7168 16.9863 23.1387 17.4082 23.1387 17.9238V18.457C25.5645 15.5156 26.9531 11.5488 26.9531 7.3418V7.27148C26.9355 3.26367 23.6543 0 19.6348 0H7.31836C3.29883 0 0.0175781 3.26367 0 7.27148V7.3418C0 11.1621 1.14844 14.8242 3.24023 17.7129L0.714844 24.2168C0.128906 25.7227 0.878906 27.4277 2.38477 28.0078C3.11719 28.2891 3.91406 28.2715 4.62891 27.9551C5.34375 27.6387 5.89453 27.0645 6.18164 26.332L8.39062 20.5547C8.57227 20.0684 9.11133 19.8223 9.59766 20.0039C10.084 20.1855 10.3301 20.7246 10.1484 21.2109L9.62695 22.6113C10.8691 23.0508 12.1699 23.2734 13.4766 23.2734C14.1211 23.2734 14.7656 23.2207 15.3984 23.1094V27.0703C15.3984 28.6875 16.7109 30 18.3281 30C19.9453 30 21.2578 28.6875 21.2578 27.0703L21.2637 17.9238Z" fill="#EFE4D2"/>
</g>
<defs>
<clipPath id="clip0_480_876">
<rect width="27.3047" height="30" fill="white"/>
</clipPath>
</defs>
</svg>
