<svg width="49" height="30" viewBox="0 0 49 30" fill="none" xmlns="http://www.w3.org/2000/svg">
<path d="M46.584 9.467C45.8134 9.10217 45.9947 9.10217 44.3628 6.45719C44.3628 6.45719 44.5441 6.00116 44.3175 5.04349C44.3175 4.99789 44.2721 4.95228 44.2721 4.86108C44.9521 4.58746 45.1787 3.85781 45.5414 3.44738C45.9494 2.90014 44.4534 2.44411 42.6402 3.35617C42.5042 3.21936 42.0962 2.71773 42.0962 2.71773C41.7336 2.48971 41.3256 2.44411 40.9176 2.67213C40.1923 3.12816 38.923 4.26824 36.2485 4.26824C33.574 4.26824 32.9846 3.31057 29.9928 3.31057C27.0009 3.31057 24.5984 4.22263 20.6999 4.22263C16.8014 4.22263 11.8603 3.7666 10.3644 3.6754C9.77507 3.62979 9.27642 3.62979 8.82311 3.62979C5.96725 3.62979 4.7433 4.04022 4.018 5.40832C2.88472 7.50606 2.61274 10.9719 3.06605 12.1576C3.51936 13.3889 3.06605 19.4085 3.06605 19.4085C3.06605 19.4085 2.15942 20.9134 2.15942 22.8287C2.15942 22.8287 3.33804 23.0111 3.61002 21.2782C3.79135 20.1381 4.10867 11.0175 4.10867 11.0175H4.47132C4.7433 13.2521 6.01258 14.8482 4.56198 18.314C3.97267 19.6821 5.4686 25.3825 5.4686 26.249C5.4686 26.8418 5.51393 28.1643 5.51393 28.9852C5.6046 29.4868 5.92191 29.806 6.3299 29.806H7.96182C7.68983 27.9363 6.82854 28.3467 6.82854 27.3434C6.82854 26.3402 7.0552 21.5062 7.32718 19.6821C7.37251 19.3173 7.55384 18.9981 7.82583 18.7244C7.82583 18.7244 8.23381 18.2228 9.27642 17.8124C9.36709 17.7668 9.41242 17.9036 9.32176 17.9492C8.95911 18.1772 8.55113 18.4508 8.27914 18.8156C8.18848 19.4085 8.18848 20.0469 8.46046 20.6854C9.00444 21.9167 10.863 25.5649 11.135 26.705C11.3163 27.4802 11.543 28.5291 11.6336 29.2132C11.7243 29.578 12.0416 29.8516 12.4043 29.8516H14.2629C14.0815 28.0275 12.9483 28.6659 12.5856 27.2066C12.2683 25.9753 11.407 21.5062 11.679 20.1837C11.7696 19.7733 12.2683 18.9981 12.9029 18.1772C13.4922 18.4052 14.2175 18.7244 15.1695 19.0437C18.252 20.1381 23.4651 18.8613 26.0943 18.6332C26.185 18.6332 26.2303 18.6332 26.2756 18.6332C26.1396 20.8678 25.8676 24.1512 25.5503 24.7897C25.097 25.7473 24.6437 26.1578 24.6437 26.1578C24.6437 26.1578 24.553 27.4802 24.553 27.7539C24.553 27.9363 24.553 28.8027 24.553 29.35C24.553 29.6236 24.7797 29.8516 25.0517 29.8516H26.8196C26.8649 28.7571 25.6863 28.2555 25.913 27.7539C26.1396 27.2522 26.8649 25.4281 27.0463 24.6529C27.1369 24.2424 27.7262 23.7864 28.1342 23.5128C28.1795 23.4672 28.3155 22.4183 28.3609 21.7799C28.3609 21.643 28.5875 21.643 28.5875 21.7799C28.5875 21.8255 28.5875 21.9167 28.5875 21.9623C28.5875 22.3271 28.5875 22.6919 28.5875 23.0567C28.6329 24.1512 28.6329 25.1089 28.6782 25.5649C29.3128 26.1578 29.3128 28.3467 29.2675 29.35C29.2675 29.6236 29.4941 29.8972 29.7661 29.8972H31.7154C31.6247 28.7571 30.7181 28.6203 30.7181 27.7995C30.7181 24.1512 31.0807 23.8776 31.5794 22.6007C31.67 22.3271 31.806 21.9167 31.9874 21.4606L33.2113 17.1283C33.2566 16.9915 33.438 17.0371 33.3926 17.1739L33.1206 19.9101C35.2965 19.7277 36.3845 18.2684 36.7925 17.1739C37.2911 15.8058 38.3337 12.796 38.787 12.112C39.5123 11.0175 39.5123 10.2423 40.9176 10.6983C40.9176 10.6983 40.9176 10.6983 40.9629 10.6983C41.7789 11.0175 42.8669 11.2911 44.1815 11.2455C44.1815 11.2455 44.1815 11.9752 45.1334 11.8384C46.04 11.7016 46.176 11.7016 46.448 11.656C46.72 11.6103 46.6747 11.2455 46.856 10.8351C46.9467 10.4247 47.3546 9.83182 46.584 9.467Z" fill="#D3CA9F"/>
</svg>
