<svg width="29" height="30" viewBox="0 0 29 30" fill="none" xmlns="http://www.w3.org/2000/svg">
<g clip-path="url(#clip0_480_385)">
<path fill-rule="evenodd" clip-rule="evenodd" d="M15.0315 17.6599C15.1216 14.0273 15.9133 13.0986 16.5081 12.2666C16.772 11.8968 16.9985 11.5505 17.0861 10.9411C17.2779 9.60773 17.4594 7.2704 18.0477 5.6234C18.4802 4.41246 19.1509 3.57913 20.1215 3.59736C20.4317 3.60387 20.7922 3.71716 21.1835 3.9333C21.7229 4.23147 22.3331 4.72886 22.9613 5.3734C25.3607 7.83563 28.0537 12.4801 28.2959 16.2327C28.5019 19.4163 29.1159 22.6571 28.852 25.1404C28.6667 26.8813 28.0552 28.2589 26.6444 29.0401C25.4111 29.7224 24.4521 29.8838 23.645 29.7718C22.8378 29.6599 22.1775 29.2679 21.5428 28.8148C21.0356 28.4515 20.5439 28.0479 19.9929 27.7393C18.7455 27.04 17.5677 26.5752 16.6718 25.4958C15.772 24.4124 15.1451 22.708 15.0434 19.5034C15.0395 19.3797 15.0356 19.2586 15.0331 19.1388C16.3345 22.1831 18.7751 24.5515 22.377 25.0658C22.8546 25.1335 23.3386 25.1596 23.3386 25.1583C23.3837 25.1518 23.3965 25.0749 23.4416 25.0684C23.4004 25.0489 23.3927 24.9838 23.3528 24.9656C23.3502 24.9643 22.6551 24.9213 21.826 24.7182C16.4528 23.4005 15.1142 17.9955 15.0331 17.6582L15.0315 17.6599Z" fill="#D3CA9F"/>
<path fill-rule="evenodd" clip-rule="evenodd" d="M13.9272 19.1433C13.9247 19.2618 13.9208 19.3815 13.9169 19.5039C13.8152 22.7071 13.1871 24.4116 12.2885 25.4963C11.3925 26.5757 10.216 27.0405 8.96736 27.7398C8.41639 28.0484 7.92464 28.452 7.41747 28.8153C6.78283 29.2697 6.12246 29.6604 5.31533 29.7723C4.50821 29.8843 3.54917 29.7229 2.31594 29.0406C0.905093 28.2606 0.293621 26.8817 0.108252 25.1409C-0.155642 22.6578 0.458394 19.4169 0.66436 16.2332C0.906372 12.4819 3.60068 7.83623 5.99904 5.3739C6.62722 4.72936 7.23741 4.23196 7.77677 3.9338C8.16811 3.71765 8.52853 3.60307 8.8388 3.59786C9.80941 3.57833 10.4801 4.41296 10.9126 5.6239C11.4996 7.27103 11.6811 9.60823 11.8742 10.9416C11.9618 11.5496 12.1883 11.8973 12.4522 12.2671C13.047 13.0991 13.8386 14.0288 13.9288 17.6604C13.8644 17.93 13.401 19.7229 12.0506 21.4794C9.36406 24.9728 5.75828 24.8974 5.60899 24.9678C5.5678 24.9873 5.56007 25.0524 5.52017 25.0706C5.56007 25.0915 5.58325 25.1396 5.62315 25.1605C5.64117 25.1696 5.66306 25.1579 5.68365 25.1566C6.64138 25.0915 10.5033 24.8883 13.1024 20.7322C13.4589 20.1619 13.7293 19.6124 13.9288 19.145L13.9272 19.1433Z" fill="#D3CA9F"/>
<path fill-rule="evenodd" clip-rule="evenodd" d="M14.4795 0.153564C15.2249 0.153564 15.884 0.417888 16.2946 0.812431C16.5946 1.10149 16.7658 1.46216 16.7658 1.8476C16.7658 2.23303 16.5946 2.5937 16.2946 2.88276C15.8853 3.2786 15.2262 3.54163 14.4795 3.54163C13.7342 3.54163 13.0751 3.27731 12.6658 2.88276C12.3658 2.5937 12.1946 2.23303 12.1946 1.8476C12.1946 1.46086 12.3658 1.1015 12.6658 0.812431C13.0751 0.416598 13.7342 0.153564 14.4795 0.153564ZM14.4795 0.674398C13.8822 0.674398 13.3493 0.873618 13.0198 1.19003C12.828 1.37493 12.7082 1.6015 12.7082 1.8489C12.7082 2.0963 12.828 2.32156 13.0198 2.50776C13.348 2.82417 13.881 3.0234 14.4795 3.0234C15.0781 3.0234 15.6098 2.82418 15.9393 2.50776C16.1311 2.32287 16.2509 2.0963 16.2509 1.8489C16.2509 1.6015 16.1311 1.37493 15.9393 1.19003C15.6111 0.873625 15.0781 0.674398 14.4795 0.674398Z" fill="#D3CA9F"/>
<path fill-rule="evenodd" clip-rule="evenodd" d="M12.3734 10.8113C13.3183 9.88157 13.3415 8.62897 13.1587 7.47393C12.86 5.5846 12.5099 3.4256 12.349 2.43627C12.3284 2.31257 12.3992 2.19278 12.515 2.14981C12.6309 2.10684 12.7609 2.15371 12.824 2.26179C13.0904 2.71882 13.7367 3.02219 14.4781 3.02219C15.2209 3.02219 15.8658 2.7188 16.1323 2.26179C16.1954 2.15371 16.3254 2.10684 16.4412 2.14981C16.5571 2.19278 16.6279 2.31257 16.6073 2.43627C16.4464 3.42453 16.0962 5.5847 15.7976 7.47393C15.6148 8.62887 15.6393 9.8815 16.5828 10.8113C16.5803 10.8295 16.5777 10.8477 16.5751 10.866C16.503 11.3699 16.3074 11.655 16.0885 11.961C15.8645 12.2748 15.6122 12.6004 15.3753 13.0639C15.1488 12.8738 14.8566 12.7501 14.4768 12.7501C14.0971 12.7501 13.8048 12.8738 13.5783 13.0639C13.3414 12.6004 13.0891 12.2748 12.8651 11.961C12.6463 11.655 12.4519 11.3699 12.3785 10.866C12.3759 10.8477 12.3733 10.8295 12.3708 10.8113H12.3734Z" fill="#D3CA9F"/>
</g>
<defs>
<clipPath id="clip0_480_385">
<rect width="29" height="30" fill="white"/>
</clipPath>
</defs>
</svg>
