<svg width="39" height="30" viewBox="0 0 39 30" fill="none" xmlns="http://www.w3.org/2000/svg">
<path d="M32.0126 6.58432C30.9511 5.31579 29.1815 4.83862 27.3243 4.83862C24.9299 4.83862 22.383 5.63931 21.0408 6.58432C19.7679 7.47811 18.4581 7.59797 16.6145 7.59797C15.9388 7.59797 15.1938 7.57935 14.3483 7.57935C13.1851 7.57935 11.8383 7.61194 10.2478 7.75974C7.04367 8.0565 6.29969 10.2049 6.29053 12.1042V17.2911H6.29515C6.30901 18.8285 6.78722 20.1762 6.78722 20.1762C8.90097 24.9744 14.8358 26.5164 23.4261 23.8899C29.9163 21.9033 32.8848 17.5869 32.9034 14.3457V9.24719C32.9034 9.21926 32.9034 9.18667 32.8988 9.15874C32.8849 8.15787 32.5812 7.26872 32.0117 6.58444L32.0126 6.58432ZM23.16 17.9254C20.4849 18.7447 18.0398 19.1578 15.8936 19.1578C14.3285 19.1578 12.4966 18.9297 10.8922 18.1325C8.65598 17.0199 7.22614 14.6923 7.21106 12.1798V12.1089C7.21106 10.3387 8.54285 8.84681 10.2928 8.68503C11.9838 8.52908 13.3491 8.50581 14.3495 8.50581C14.7907 8.50581 15.2088 8.51046 15.5993 8.51512C15.9573 8.51977 16.2935 8.52443 16.6146 8.52443C18.4072 8.52443 20.0163 8.43598 21.5651 7.34319C22.6821 6.55648 25.0212 5.76392 27.3244 5.76392C28.6019 5.76392 30.3299 6.00948 31.3095 7.17677C31.7369 7.69118 31.9714 8.3813 31.9806 9.16802V9.2425L31.9852 9.26112C31.976 12.1415 29.2131 16.0727 23.1604 17.9255L23.16 17.9254Z" fill="#D8A7A0"/>
<path d="M23.3936 14.2596C20.4355 13.6987 17.0604 14.98 16.1594 12.4615C15.9238 11.8017 15.4883 11.321 14.9732 10.9719C14.4338 10.6053 13.7915 10.4098 13.1436 10.3458C9.90598 10.0234 9.05349 10.8799 9.04875 12.1426V12.1682C9.05222 13.5729 9.62513 14.9439 10.7063 15.8307C11.9018 16.8106 13.6367 17.3064 15.8925 17.3064C17.3987 17.3064 19.5275 17.2144 20.9874 16.8769C23.6174 16.2694 24.0091 15.8435 24.2365 15.2465C24.3601 14.9229 24.3485 14.4423 23.3933 14.2607L23.3936 14.2596Z" fill="#D8A7A0"/>
<path d="M27.3243 7.61665C25.2972 7.61665 23.6119 8.05774 22.8762 8.57679C22.3437 8.95269 19.7932 9.50318 19.2586 9.7173C18.189 10.1444 18.0181 11.7074 19.0703 12.1752C20.3594 12.749 20.4195 12.0239 22.2201 12.4289C23.1326 12.6349 24.0694 13.2494 25.2164 13.3646C27.1465 13.559 29.0409 12.5337 29.8044 10.7368C30.0112 10.2503 30.1198 9.79645 30.1429 9.40306V9.19009C30.1382 8.83862 30.0504 8.5465 29.9038 8.37078C29.5041 7.88896 28.5616 7.61546 27.3256 7.61546L27.3243 7.61665Z" fill="#D8A7A0"/>
</svg>
