<svg width="36" height="30" viewBox="0 0 36 30" fill="none" xmlns="http://www.w3.org/2000/svg">
<g clip-path="url(#clip0_480_12)">
<path d="M0.534366 20.701C0.622257 21.7557 0.856632 22.8104 1.08067 23.8289C1.27024 24.6974 1.47359 25.5987 1.58732 26.5104C1.60973 26.6827 1.62696 26.8809 1.64419 27.0963C1.72864 28.0803 1.84238 29.4211 2.63684 29.7037C2.95394 29.814 3.39165 29.6555 3.92935 29.2281C4.5463 28.7335 5.12018 28.1424 5.67681 27.5685C6.26274 26.9602 6.8728 26.3329 7.55697 25.7952C8.89427 24.7405 10.447 24.065 11.9515 23.4084C12.4944 23.1705 13.0407 22.9327 13.5714 22.6811C15.7153 21.654 17.5162 20.2684 18.7778 18.6847C19.3913 17.9126 19.8635 17.013 20.1857 16.0118C21.0112 13.1355 21.0939 9.9906 21.1025 6.99855C21.0888 6.78657 21.4196 6.76072 21.4386 6.97614C21.6195 10.0196 21.7385 13.0732 21.1077 16.0825C21.3283 16.5581 21.7436 16.9476 22.2451 17.1285C22.7742 17.3147 23.3343 17.2561 23.8237 16.9648L24.37 16.6391C24.5682 16.5202 24.7577 16.4099 24.9387 16.2996C26.9636 15.1346 28.544 13.8956 29.7745 12.5152C30.3397 11.8844 30.8636 11.1865 31.3668 10.5075C32.1251 9.49239 32.9161 8.44288 33.8812 7.55536C34.0173 7.43128 34.1586 7.30892 34.3 7.18484C34.7463 6.79709 35.1685 6.42655 35.4512 5.96645C35.7028 5.56491 35.7769 5.17198 35.6855 4.80148C35.5701 4.3517 35.1961 3.93289 34.6309 3.61926C33.5503 3.01952 32.2974 2.58699 30.793 2.29573C28.2425 1.79768 25.7283 1.86317 23.5189 2.48185C22.3229 2.81273 20.2014 2.7731 17.8286 1.66497C17.5994 1.55984 17.3788 1.43059 17.1582 1.30824L16.9204 1.17554C15.7778 0.54479 14.5904 0.267334 13.4082 0.267334C9.76335 0.267334 6.1341 2.90063 3.84704 6.02513C2.26847 8.17758 1.20515 11.1829 0.67953 14.9501C0.414136 16.851 0.36588 18.788 0.529601 20.7079L0.534366 20.701Z" fill="#D3CA9F"/>
</g>
<defs>
<clipPath id="clip0_480_12">
<rect width="35.7353" height="30" fill="white"/>
</clipPath>
</defs>
</svg>
