<svg width="31" height="30" viewBox="0 0 31 30" fill="none" xmlns="http://www.w3.org/2000/svg">
<g clip-path="url(#clip0_480_489)">
<path d="M29.9965 5.69425C29.9245 3.84056 28.9886 2.12664 27.4688 1.05993C27.4688 1.50206 27.4368 1.93351 27.3942 2.36497C26.1517 16.3102 9.99372 24.9342 9.82308 25.0249C9.56178 25.162 9.24049 25.0608 9.10315 24.8011C8.96584 24.5401 9.06716 24.2192 9.32713 24.082C9.49244 23.9861 25.6293 15.3783 26.3917 1.64611C26.3917 1.07614 26.6584 0.330404 25.8585 0.28779C24.1227 -0.242221 22.2363 0.307765 21.0592 1.68872C20.238 2.56496 19.6594 3.63831 19.3794 4.80484C17.369 12.896 6.85296 18.0843 3.67451 19.4799C2.22269 20.0872 1.06284 21.2324 0.437558 22.676C0.193589 23.2592 0.0575974 23.8825 0.0375977 24.5137C0.36289 24.4071 0.73083 24.2793 1.13615 24.1248C5.74359 22.4576 15.209 18.2602 19.6407 10.7387C19.7033 10.6015 19.8206 10.4963 19.9646 10.4511C20.1073 10.4044 20.2646 10.4218 20.3952 10.4977C20.5246 10.5736 20.6179 10.7014 20.6485 10.8479C20.6792 10.9957 20.6472 11.1488 20.5579 11.2714C15.3211 19.7941 5.52499 23.7306 0.12302 25.6536C0.404319 26.9187 1.0669 28.068 2.02146 28.9455C2.80138 29.6287 3.81857 29.9762 4.85312 29.915C8.83123 29.915 14.6919 26.2397 18.3342 23.6508C25.9491 18.1376 30.5726 9.36977 29.9968 5.69443L29.9965 5.69425Z" fill="#DCEBE7"/>
</g>
<defs>
<clipPath id="clip0_480_489">
<rect width="30.375" height="30" fill="white"/>
</clipPath>
</defs>
</svg>
