<svg width="32" height="30" viewBox="0 0 32 30" fill="none" xmlns="http://www.w3.org/2000/svg">
<path d="M2.86377 24.1997L4.62554 23.4314C6.13162 22.7664 7.37753 21.5204 8.04366 20.012C8.34084 19.3312 8.75913 18.7178 9.28845 18.1873C9.77515 17.7006 10.365 17.2901 10.9998 16.9952C11.0289 16.9907 11.0592 16.9817 11.0872 16.9694C12.5944 16.3032 13.8403 15.0572 14.5042 13.5522C14.5121 13.5331 14.5188 13.5118 14.5244 13.4894C15.1064 12.1895 16.183 11.1118 17.4906 10.5208C17.5141 10.5163 17.5377 10.5084 17.5601 10.4983C19.0841 9.82543 20.2953 8.61421 20.9771 7.06205C21.576 5.70504 22.6548 4.62616 24.0128 4.02616L26.0438 3.13232L28.7128 5.80149L26.9409 6.58205C25.4157 7.25607 24.2057 8.46617 23.5239 10.0183C22.9318 11.3596 21.872 12.4284 20.5386 13.0318C20.5151 13.0363 20.4915 13.0441 20.4691 13.0542C18.9608 13.7204 17.7182 14.963 17.06 16.4636C17.0521 16.4815 17.0454 16.5028 17.0409 16.5253C16.4555 17.8217 15.3868 18.8961 14.0938 19.4916C14.0635 19.4961 14.0332 19.5062 14.0041 19.5185C13.2583 19.8527 12.563 20.3294 11.9956 20.8969C11.4012 21.4913 10.9302 22.181 10.5983 22.9436C10.005 24.286 8.89483 25.3963 7.55472 25.9885L5.53165 26.87L2.86377 24.1997Z" fill="#DCEBE7"/>
<path d="M0.00884975 21.0472C0.0391284 20.8879 0.141178 20.7589 0.289207 20.6939L1.40055 20.2038C2.92906 19.5298 4.14132 18.3163 4.8153 16.7877C5.41527 15.4262 6.49633 14.3451 7.86335 13.7417C9.39074 13.0677 10.603 11.8554 11.2804 10.32C11.8803 8.95853 12.9603 7.87853 14.3318 7.27404C15.8592 6.60114 17.0703 5.38992 17.7533 3.84225C18.3521 2.48412 19.4309 1.40636 20.789 0.805236L22.5171 0.0426168C22.581 0.0145793 22.6472 0 22.7133 0C22.8389 0 22.9612 0.0493458 23.0543 0.14243L25.4889 2.5772L23.717 3.35777C22.1919 4.03179 20.9819 5.24188 20.3 6.79404C19.7079 8.13535 18.6493 9.20302 17.3148 9.8075C17.2912 9.81199 17.2677 9.81984 17.2452 9.82993C15.7369 10.4961 14.4944 11.7387 13.8361 13.2393C13.8282 13.2572 13.8215 13.2785 13.817 13.301C13.2316 14.5974 12.1629 15.6718 10.8699 16.2673C10.8396 16.2718 10.8094 16.2819 10.7802 16.2942C10.0356 16.6273 9.34028 17.104 8.77171 17.6726C8.17735 18.267 7.70635 18.9567 7.37441 19.7193C6.78117 21.0617 5.67095 22.172 4.33084 22.7642L2.3089 23.6457L0.141179 21.4778C0.0267925 21.3634 -0.0214289 21.2064 0.00884975 21.0472Z" fill="#DCEBE7"/>
<path d="M31.2885 9.30827C31.2874 9.30827 31.2874 9.30827 31.2885 9.30827L30.1626 9.8051C28.6374 10.4791 27.4274 11.6892 26.7445 13.2358C26.1434 14.595 25.0645 15.6739 23.6942 16.2784C22.1668 16.9524 20.9545 18.1647 20.2772 19.7001C19.6772 21.0605 18.5973 22.1405 17.2314 22.7438C15.7017 23.4178 14.4895 24.6313 13.8166 26.1599C13.2166 27.5225 12.1356 28.6025 10.7753 29.2025L9.05948 29.9584C8.87221 30.0392 8.66362 29.9999 8.52232 29.8575L6.08545 27.4205L7.84722 26.6534C9.3533 25.9883 10.5992 24.7423 11.2653 23.2339C11.5625 22.5532 11.9808 21.9397 12.5112 21.4092C12.9968 20.9236 13.5867 20.512 14.2226 20.2171C14.2517 20.2126 14.282 20.2036 14.31 20.1913C15.8172 19.5251 17.0631 18.2791 17.727 16.7741C17.7349 16.755 17.7416 16.7337 17.7472 16.7113C18.3292 15.4115 19.4058 14.3337 20.7134 13.7427C20.7369 13.7382 20.7605 13.7303 20.7829 13.7202C22.3069 13.0473 23.517 11.8373 24.1999 10.284C24.7988 8.92696 25.8776 7.84808 27.2356 7.24808L29.2665 6.35425L31.4365 8.52435C31.552 8.63874 31.6002 8.79575 31.57 8.955C31.5397 9.11426 31.4365 9.24323 31.2885 9.30827Z" fill="#DCEBE7"/>
</svg>
