<svg width="20" height="30" viewBox="0 0 20 30" fill="none" xmlns="http://www.w3.org/2000/svg">
<g clip-path="url(#clip0_480_114)">
<path d="M7.73287 4.41859C7.20335 4.87433 6.60005 5.39225 6.17328 6.67407C5.8738 7.57829 5.79135 8.4854 5.84775 9.33322C5.92877 9.35926 6.0069 9.38096 6.08502 9.41134C6.44816 9.55601 6.96321 9.8526 7.31765 10.2592C7.37263 10.3228 7.42182 10.3807 7.46233 10.4443C7.67356 10.1478 7.87755 9.84827 8.08444 9.5329C8.2407 9.30286 8.39115 9.06993 8.55174 8.84423C9.19555 7.91397 10.0072 6.88097 11.1588 6.26612C12.2106 5.70334 13.4548 5.52538 14.673 5.44434C14.6093 5.304 14.5139 5.12605 14.3576 4.89601C14.184 4.63704 14.0133 4.42871 13.8657 4.24353C13.491 3.78779 13.1365 3.35523 13.3434 2.65497C13.4765 2.21082 13.6805 1.80282 13.8324 1.5323C13.7847 1.50337 13.7283 1.46575 13.6588 1.42524C13.4924 1.32108 13.3593 1.26176 13.2624 1.22559C12.5173 2.99933 12.4291 3.00656 12.1918 3.03259C12.0515 3.0514 11.9025 2.98051 11.8214 2.86621C11.5986 2.54793 11.6999 1.49903 11.9025 0.539844C11.8576 0.521037 11.7983 0.50223 11.7173 0.480526C11.6507 0.466058 11.48 0.421207 11.3686 0.4024C11.2832 0.639667 11.1357 1.26899 11.0431 1.66544C10.7942 2.70999 10.7508 2.89807 10.3689 2.8431C10.1287 2.80983 9.97971 2.78813 9.40245 0.369141C9.15795 0.369141 8.55464 0.509478 8.2653 0.642578C8.46495 1.15039 8.86571 2.33528 8.62844 3.23084C8.4881 3.76469 8.11774 4.08298 7.72855 4.41573L7.73287 4.41859Z" fill="#D8A7A0"/>
<path d="M5.11139 1.87377L3.31161 2.70277C3.63424 3.29884 4.07117 4.54014 3.80061 6.62944C3.72248 7.22262 3.50113 8.35977 3.2335 9.53744C3.80061 9.264 4.4372 9.14536 5.05642 9.18587C5.02315 8.34821 5.1114 7.41506 5.43835 6.4298C5.54252 6.11441 5.66115 5.84532 5.78268 5.6008H5.76821C5.76821 5.6008 6.0648 4.1338 5.11284 1.87524L5.11139 1.87377Z" fill="#D8A7A0"/>
<path d="M15.0258 7.81821C15.3919 7.73286 16.5883 7.52163 17.2408 7.42614C17.2481 7.03407 17.222 6.61162 17.1598 6.11536C16.7894 6.13706 16.4147 6.14864 16.027 6.16311C14.4457 6.21519 12.808 6.27017 11.5303 6.95159C10.5234 7.48833 9.78555 8.43307 9.1967 9.28522C9.04045 9.50802 8.88999 9.73663 8.73807 9.96229C8.42268 10.4368 8.09715 10.9171 7.73837 11.3772C7.72679 11.477 7.70075 11.5769 7.66024 11.6738C7.55608 11.9183 7.3897 12.1107 7.24502 12.2814L7.14086 12.403C6.91805 12.6764 6.73285 12.9874 6.54045 13.3173C6.44062 13.488 6.3408 13.6588 6.23374 13.8251C5.60729 14.806 4.77829 15.622 3.97825 16.4134C3.70771 16.6796 3.44151 16.9473 3.17818 17.2178C2.84108 17.5665 2.50111 17.9441 2.34918 18.3883C2.24212 18.6993 2.21897 19.0581 2.19727 19.4357C2.15966 20.0621 2.12348 20.706 1.69379 21.2398C1.67498 21.2615 1.65617 21.2774 1.63881 21.2948C1.86451 22.1325 2.29851 22.9759 2.91629 23.7499C4.4354 25.6466 6.79777 27.2019 8.91296 28.4722C10.7272 29.5616 12.4315 30.0723 13.9796 29.9869C17.1538 29.8133 18.5211 26.9646 18.9607 25.7495C19.7897 23.4607 20.0125 20.8202 19.6046 18.1091C19.279 15.9346 18.56 13.698 17.4706 11.4613C16.8224 10.1318 15.2035 8.4839 13.7524 9.13497C13.6671 9.18706 13.5788 9.23914 13.4964 9.29412C13.0479 9.61241 12.6891 10.0464 12.4561 10.5456H12.4446C12.2637 10.9116 12.1219 11.3601 12.0959 11.9012C12.0843 12.1153 11.8962 12.2788 11.685 12.2716C11.4709 12.26 11.3031 12.0791 11.3146 11.8636C11.3696 10.7597 11.8036 9.95675 12.2623 9.40408C12.3028 9.35634 12.3476 9.30715 12.3881 9.25941C12.433 9.21166 12.4764 9.16247 12.5256 9.11907C12.6037 9.03805 12.6847 8.96282 12.7744 8.88904C12.841 8.82972 12.9075 8.77764 12.9668 8.73278C12.9929 8.71108 13.0189 8.68794 13.0479 8.66623C13.0739 8.64743 13.1028 8.63296 13.126 8.61415C13.2258 8.54325 13.3039 8.49985 13.356 8.46947C13.3632 8.46513 13.3748 8.4579 13.3821 8.45501C13.3821 8.45501 13.3936 8.44777 13.3965 8.44777C13.8667 8.17433 14.4078 7.96311 15.0183 7.82133L15.0258 7.81821Z" fill="#D8A7A0"/>
<path d="M0.199536 16.5697C0.118518 18.0223 0.417995 19.495 1.0372 20.7175C1.04878 20.7392 1.0589 20.7623 1.07048 20.7768C1.07771 20.7696 1.08205 20.7623 1.08929 20.7551C1.36272 20.4137 1.3931 19.9174 1.42204 19.3951C1.44808 18.9799 1.46979 18.5546 1.61446 18.1394C1.81845 17.5462 2.2409 17.076 2.6185 16.6796C2.8847 16.4018 3.15957 16.1312 3.43302 15.8607C4.24031 15.065 4.99987 14.3127 5.58146 13.4056C5.68129 13.2464 5.77822 13.0873 5.87081 12.9238C6.07046 12.5824 6.27444 12.2308 6.53777 11.9096L6.65207 11.7765C6.7707 11.6362 6.885 11.506 6.94142 11.3685C7.01231 11.205 6.94142 11.0054 6.73453 10.7681C6.46833 10.4643 6.06757 10.2342 5.80139 10.1315C5.49757 10.0129 5.16046 9.95355 4.8205 9.95355C4.37635 9.95355 3.92783 10.0534 3.53576 10.2501C0.691423 11.6795 0.268979 15.4468 0.206756 16.5653L0.199536 16.5697Z" fill="#D8A7A0"/>
</g>
<defs>
<clipPath id="clip0_480_114">
<rect width="20" height="30" fill="white"/>
</clipPath>
</defs>
</svg>
