<svg width="27" height="30" viewBox="0 0 27 30" fill="none" xmlns="http://www.w3.org/2000/svg">
<path d="M19.6852 0.313C20.6895 0.146593 21.7195 0.222766 22.6888 0.533314C23.4728 0.784096 24.1981 1.19307 24.8192 1.73448C25.4989 2.31222 26.0333 3.04113 26.3778 3.86496C26.6696 4.52823 26.8032 5.25129 26.7681 5.97552C26.7235 6.88959 26.3052 7.74387 25.6103 8.33919C24.9868 8.82903 24.2556 9.16185 23.4774 9.30951C22.1263 9.60834 20.7353 9.66459 19.3794 9.93645C18.6693 10.0876 17.9697 10.2845 17.2841 10.5236C15.913 11.0275 14.6087 11.6954 13.3994 12.5134C14.992 11.8067 16.6724 11.3169 18.395 11.0591C19.4462 10.8962 20.5032 10.7849 21.5591 10.6524C22.3232 10.5845 23.0814 10.4638 23.829 10.2903C24.3529 10.1907 24.8544 10.0009 25.3126 9.729C25.3736 9.68916 25.4415 9.66221 25.513 9.65049C25.5458 9.68799 25.581 9.72549 25.6161 9.76299C25.4826 9.95283 25.308 10.1075 25.158 10.2845V10.2833C24.2486 11.2689 23.1564 12.0681 21.9423 12.6376C21.1712 13.0009 20.3837 13.329 19.5962 13.6525C17.9895 14.2372 16.4591 15.0106 15.0365 15.9587C14.3474 16.4626 13.6888 17.0087 13.0665 17.5935C12.4314 18.2052 11.8126 18.8333 11.1716 19.438C10.5822 19.9642 9.93529 20.4235 9.24271 20.8056C8.80207 21.0833 8.33569 21.3165 7.8892 21.5837C6.44077 22.4134 4.92904 23.1845 3.7021 24.3364C3.02359 24.9564 2.47279 25.704 2.07904 26.5349C1.77553 27.1759 1.61029 27.8731 1.59271 28.581C1.61146 28.7075 1.43334 28.8353 1.33607 28.7275V28.7286C0.890754 28.3267 0.556763 27.8157 0.366923 27.2462C0.148955 26.6134 0.17825 25.922 0.450125 25.3103C0.748952 24.7454 1.15795 24.2462 1.6513 23.8408C3.01537 22.7579 4.45324 21.7689 5.9521 20.8806C7.52593 19.9114 9.0376 18.8474 10.5541 17.7915C11.1951 17.3521 11.8127 16.8809 12.4643 16.4567C13.199 15.9352 13.9748 15.4759 14.7365 14.9942C16.2623 14.1352 17.7809 13.2634 19.3442 12.4759C20.1915 12.0106 21.0657 11.5958 21.961 11.2302C21.361 11.4071 20.7423 11.5079 20.1364 11.6626C19.2376 11.8818 18.3517 12.1536 17.4845 12.4747C15.9001 13.0911 14.3885 13.8833 12.9797 14.836C11.4176 15.8228 9.94909 16.9466 8.41519 17.9743C6.99721 18.9739 5.52067 19.888 4.04989 20.8079C3.01279 21.4958 1.89364 22.0935 1.02169 22.997C0.954887 23.0146 0.899811 22.9607 0.842388 22.9396C0.779106 22.7345 0.977154 22.5763 1.09317 22.4333H1.092C1.60293 21.8345 2.14785 21.2662 2.72442 20.7294C3.33378 20.1611 3.98184 19.6372 4.62402 19.1064C5.24511 18.5872 5.86737 18.0693 6.47793 17.5395C7.80684 16.3841 9.05136 15.1349 10.2021 13.8C10.4377 13.5153 10.6779 13.2329 10.9146 12.9493C11.4478 12.2508 11.9916 11.5606 12.5189 10.8575C13.0076 10.1965 13.5244 9.5567 14.0482 8.92388L14.0494 8.92505C15.0326 7.72154 16.1963 6.67739 17.4994 5.82785C18.0514 5.47277 18.6432 5.18684 19.2643 4.97471C19.8561 4.79424 20.4596 4.65479 21.0713 4.55519C21.6197 4.48019 22.14 4.26457 22.5806 3.92942C22.392 4.05247 22.1834 4.14153 21.9631 4.19426C21.5599 3.83684 21.0314 3.65402 20.4924 3.68567C19.9861 3.69153 19.4822 3.77591 19.0017 3.93763C18.0924 4.22942 17.2334 4.66069 16.4564 5.21614C15.9853 5.54428 15.5365 5.90287 15.1123 6.29074C14.2662 7.07707 13.4787 7.92433 12.7544 8.8255C12.724 8.87354 12.6677 8.89815 12.6115 8.88761C12.5564 8.87589 12.513 8.83136 12.5037 8.77511C12.5224 8.61573 12.5634 8.4587 12.6267 8.31104C12.7837 7.73798 12.9748 7.1743 13.181 6.61768C13.4892 5.83486 13.8607 5.07901 14.2943 4.35832C14.7443 3.61534 15.2857 2.92981 15.9044 2.31925C16.4927 1.70989 17.1888 1.21651 17.9588 0.862605C18.5095 0.610653 19.0898 0.4255 19.6852 0.313Z" fill="#D3CA9F"/>
<path d="M8.62029 22.3851C8.87224 22.2515 9.11013 22.0933 9.36912 21.9714C9.40076 21.9843 9.46404 22.0113 9.49568 22.0242L9.49451 22.0253C9.47811 22.1859 9.41131 22.3382 9.30232 22.4589C8.33668 23.9624 7.3828 25.473 6.46288 27.0045C6.21913 27.4053 5.96719 27.8026 5.72812 28.2069C5.49726 28.685 5.16562 29.108 4.75663 29.4479C4.34647 29.7256 3.84256 29.8299 3.35506 29.7385C2.9953 29.6764 2.71756 29.3881 2.66716 29.026C2.62849 28.3944 2.73513 27.7627 2.97889 27.1791C3.32812 26.3436 3.86482 25.5983 4.54687 25.003C5.00038 24.5998 5.48788 24.2377 6.00352 23.9178C6.85429 23.3706 7.74021 22.8843 8.62029 22.3851Z" fill="black"/>
</svg>
