<svg width="40" height="30" viewBox="0 0 40 30" fill="none" xmlns="http://www.w3.org/2000/svg">
<path d="M3.78905 18.7828C4.00945 18.2438 4.82205 17.6445 5.37189 17.1462C5.75387 16.4461 5.64877 15.3477 5.54366 14.2752C5.47621 13.5844 5.41268 12.932 5.47699 12.3758C5.61896 11.1562 6.55706 9.97965 7.61438 9.6988C7.85518 9.63309 8.20657 9.59007 8.60346 9.69568C9.28193 9.3413 10.0279 9.16372 10.6397 9.12304C12.2052 9.02212 17.1993 8.98692 18.91 8.95015C20.6214 8.91182 24.1158 8.87036 25.4327 8.77883C26.7489 8.68731 27.8337 8.17804 27.8337 8.17804C26.9144 7.54125 26.9277 6.18867 27.1026 6.10888C27.2783 6.03065 27.7733 5.93756 28.349 6.05725C28.9247 6.17459 29.6487 7.24711 29.6487 7.24711C30.0016 7.16028 30.9884 6.87005 31.7861 7.15558C32.583 7.44268 32.9681 8.10137 33.0904 8.45262C33.2128 8.8023 34.2152 10.5398 34.627 11.0209C35.0404 11.5004 35.6773 12.2217 35.6216 12.5792C35.5659 12.9367 35.1792 13.9146 34.3211 13.8809C33.463 13.8457 31.0997 13.629 31.0997 13.629C30.1444 13.8152 29.4769 14.0507 28.4768 14.876C27.4768 15.7013 26.4132 17.5272 26.1088 17.9301C26.0006 18.0756 24.9998 19.964 24.7723 20.7815C24.3417 22.3297 23.9683 24.0006 24.0068 24.8502C24.0726 26.2833 24.464 28.4346 24.8562 28.7616C25.2484 29.0871 25.9018 29.9992 25.4445 29.9992C24.9872 29.9992 23.6797 29.9992 23.6797 29.9992C23.2875 29.4782 22.8953 29.2826 22.8302 28.2391C22.7651 27.1971 22.6992 25.3712 22.0458 23.4812C21.9094 23.0853 21.8113 22.641 21.7392 22.1873C21.485 23.2614 21.3093 24.2564 21.336 24.8502C21.4011 26.2833 21.7933 28.4346 22.1855 28.7616C22.5776 29.0871 23.231 29.9992 22.7737 29.9992C22.3165 29.9992 21.0089 29.9992 21.0089 29.9992C20.6167 29.4782 20.2246 29.2826 20.1595 28.2391C20.0944 27.1971 20.0285 25.3712 19.3751 23.4812C18.9037 22.1169 18.8747 20.1901 18.8951 19.22C17.6103 19.3773 16.1082 19.4383 14.7764 19.3014C14.6266 19.2858 14.4799 19.2646 14.3348 19.242C13.4979 21.254 12.0445 23.2864 12.0445 23.2864C11.9135 24.7195 11.9794 28.11 12.5676 28.7288C13.1559 29.3491 13.7112 30 13.123 30C12.5347 30 12.6327 30 11.8484 30C11.064 30 10.5738 29.6089 10.6718 28.1421C10.7699 26.6753 10.2004 25.5597 10.0043 24.4841C9.80824 23.4084 9.52351 22.9516 10.0694 21.1914C10.1455 20.9481 10.2075 20.7361 10.2561 20.539C9.46861 22.0426 8.57993 23.2864 8.57993 23.2864C8.44894 24.7195 8.51483 28.11 9.1031 28.7288C9.69137 29.3491 10.2467 30 9.65843 30C9.07016 30 9.1682 30 8.38384 30C7.59948 30 7.10925 29.6089 7.2073 28.1421C7.30534 26.6753 6.73589 25.5597 6.5398 24.4841C6.34371 23.4084 6.05899 22.9516 6.60491 21.1914C6.93512 20.1283 6.86924 15.0794 6.8159 14.01C6.7508 13.6494 6.70452 13.252 6.69197 12.8139C6.6653 11.9017 6.95551 11.1898 7.40652 10.643C6.82845 11.0037 6.33901 11.7398 6.2543 12.4658C6.19939 12.939 6.259 13.5508 6.32253 14.1985C6.44254 15.4252 6.57118 16.7777 5.96173 17.6915C5.87153 18.5074 5.44954 19.5705 4.01181 20.2887C4.01259 20.2894 3.62904 19.1723 3.78905 18.7828ZM31.306 9.76373C31.6315 9.83883 31.9547 9.72697 32.1688 9.49932C32.077 9.20283 31.8378 8.96032 31.5123 8.88366C31.1868 8.80856 30.8636 8.92043 30.6495 9.14651C30.7413 9.44456 30.9813 9.68707 31.306 9.76373Z" fill="#D3CA9F"/>
</svg>
