<svg width="22" height="30" viewBox="0 0 22 30" fill="none" xmlns="http://www.w3.org/2000/svg">
<g clip-path="url(#clip0_480_1263)">
<path d="M8.79921 -5.45191C8.57718 -5.58323 8.3053 -5.66021 8.06515 -5.56964C7.87483 -5.49719 7.73437 -5.32059 7.65734 -5.13493C7.58484 -4.94021 7.5803 -4.73191 7.5939 -4.53266C7.64827 -3.72662 8.07421 -2.95229 8.73124 -2.48587C9.38374 -2.0104 10.2266 -1.88813 11.0331 -1.88813C11.8397 -1.88813 12.678 -2.0104 13.335 -2.48587C13.992 -2.95229 14.4225 -3.72662 14.4723 -4.53266C14.4859 -4.73191 14.4769 -4.94021 14.3998 -5.13493C14.3273 -5.32511 14.1869 -5.49719 13.9966 -5.56964C13.7564 -5.66021 13.4845 -5.58323 13.2625 -5.45191C13.0405 -5.32059 12.8456 -5.14851 12.6236 -5.01719C12.1342 -4.73644 11.5905 -4.78172 11.0286 -4.78172C10.4622 -4.78172 9.92296 -4.73644 9.43358 -5.01719C9.21608 -5.14398 9.02124 -5.32059 8.79921 -5.45191Z" fill="#DCEBE7"/>
<path d="M8.24641 -9.00191C8.66329 -8.41323 9.31126 -7.99209 9.98641 -7.91511C9.42907 -8.29549 9.02579 -8.78002 8.7675 -9.31436C8.64516 -9.59059 8.55454 -9.84417 8.51829 -10.1521C8.46391 -10.451 8.4186 -10.8721 8.10141 -11.2389C7.94282 -11.411 7.72532 -11.5468 7.49875 -11.6012C7.27219 -11.66 7.05016 -11.66 6.84626 -11.6147C6.64235 -11.5695 6.45204 -11.4925 6.27985 -11.3883C6.11219 -11.2887 5.97172 -11.1619 5.84938 -11.0351C5.35094 -10.5325 5.10626 -9.95285 4.45376 -9.72191C4.79813 -9.65398 5.16063 -9.80342 5.45516 -9.98455C5.74969 -10.1747 6.00344 -10.4012 6.24813 -10.5778C6.50188 -10.7498 6.72844 -10.8766 6.97313 -10.8902C7.21782 -10.9128 7.40813 -10.854 7.52594 -10.7181C7.65282 -10.5868 7.72079 -10.3242 7.80235 -9.9936C7.88391 -9.65851 8.02891 -9.28719 8.24641 -9.00191Z" fill="#DCEBE7"/>
<path d="M13.8103 -9.00231C14.0278 -9.28759 14.1728 -9.65438 14.2589 -9.99401C14.3405 -10.3246 14.4085 -10.5917 14.5353 -10.7185C14.6532 -10.8544 14.8389 -10.9133 15.0882 -10.8906C15.3328 -10.8725 15.5594 -10.7502 15.8132 -10.5782C16.0578 -10.4016 16.3116 -10.1797 16.6061 -9.98495C16.9007 -9.80382 17.2632 -9.65438 17.6075 -9.72231C16.955 -9.95325 16.7103 -10.5283 16.2119 -11.0355C16.0896 -11.1623 15.9491 -11.2891 15.7814 -11.3887C15.6092 -11.4929 15.4189 -11.5744 15.215 -11.6151C15.0111 -11.6604 14.7891 -11.6604 14.5625 -11.6061C14.336 -11.5517 14.1185 -11.4159 13.9599 -11.2438C13.6381 -10.8725 13.5974 -10.4559 13.543 -10.157C13.5022 -9.8491 13.4161 -9.59552 13.2938 -9.31929C13.0355 -8.78495 12.6322 -8.30042 12.0749 -7.92004C12.75 -7.9925 13.3935 -8.41363 13.8103 -9.00231Z" fill="#DCEBE7"/>
<path d="M21.3417 35.4477L20.5941 34.3337C20.4264 34.0892 20.1636 33.9353 19.8826 33.9307C19.638 33.9217 19.4159 34.0303 19.2709 34.2205C19.1939 34.3247 19.1033 34.4198 19.0217 34.5194L18.2242 33.3919C18.4734 33.1202 18.7045 32.8349 18.9175 32.5315C19.1033 32.2688 19.0942 31.8885 18.8948 31.5896L18.1472 30.4802C17.9795 30.2356 17.7167 30.0817 17.4403 30.0726C17.1911 30.0771 16.9691 30.1722 16.8286 30.3624C16.4706 30.8334 16.0719 31.259 15.6369 31.6439L14.9662 30.0273V28.5783C15.1928 28.4922 15.4148 28.4017 15.6369 28.3066C15.945 28.1707 16.1398 27.8492 16.1398 27.4915V26.0968C16.1398 25.7934 15.9948 25.5171 15.7547 25.3587C15.6641 25.2998 15.5598 25.2636 15.4556 25.2409L15.5009 25.0054V23.5836C15.5462 23.5654 15.587 23.5473 15.6323 23.5292C15.9405 23.3934 16.1353 23.0719 16.1353 22.7141V21.3194C16.1353 21.016 15.9903 20.7398 15.7501 20.5813C15.6731 20.527 15.587 20.4998 15.4964 20.4771V18.8153C15.5417 18.7971 15.5825 18.779 15.6278 18.7609C15.9359 18.6251 16.1308 18.3036 16.1308 17.9458V16.5511C16.1308 16.2477 15.9858 15.9715 15.7456 15.813C15.6686 15.7587 15.5825 15.7315 15.4919 15.7088V14.047C15.5372 14.0288 15.578 14.0107 15.6233 13.9926C15.9269 13.8568 16.1262 13.5353 16.1262 13.1775V11.7828C16.1262 11.4794 15.9812 11.2032 15.7411 11.0447C15.6641 10.9904 15.578 10.9632 15.4873 10.9405V9.27866C15.5326 9.26054 15.5734 9.24243 15.6187 9.22432C15.9223 9.08847 16.1217 8.76696 16.1217 8.40922V7.01451C16.1217 6.71111 15.9767 6.43488 15.7366 6.27639C15.6595 6.22205 15.5734 6.19488 15.4828 6.17224V4.51035C15.5281 4.49224 15.5689 4.47413 15.6142 4.45602C15.9178 4.32017 16.1172 3.99866 16.1172 3.64092V2.2462C16.1172 1.94281 15.9722 1.66658 15.732 1.50809C15.5145 1.36319 15.2426 1.33602 15.0025 1.42658L14.9436 1.15941V-0.321342C15.1928 -0.407379 15.4194 -0.547758 15.6097 -0.742474L17.6714 -2.92965C18.0112 -3.28738 18.1789 -3.77191 18.1291 -4.25644L17.8572 -7.12285C17.8345 -7.34474 17.8934 -7.5621 18.0248 -7.73417L18.0294 -7.7387L19.3298 -9.55002C19.5745 -9.8987 19.6833 -10.3198 19.6334 -10.7364L19.3162 -13.3855C19.3072 -13.4761 19.3072 -13.5666 19.3208 -13.6436C19.5337 -14.9523 19.7014 -17.1938 18.4326 -17.5108C18.0158 -17.6149 17.7575 -17.4881 17.608 -17.3659C17.1594 -16.9855 17.2183 -16.2066 17.2862 -15.3055C17.327 -14.7938 17.3678 -14.2595 17.2998 -13.9379C17.1594 -13.4444 16.9011 -13.0459 16.5159 -12.7153C16.4616 -12.67 16.3981 -12.661 16.3573 -12.67C16.2848 -12.6745 16.2169 -12.7108 16.167 -12.7742C15.2789 -13.793 14.4044 -14.2549 13.6295 -14.101C12.7867 -13.9334 12.3426 -12.7651 11.9076 -11.633C11.7037 -11.0942 11.2733 -9.97568 11.0331 -9.97568C10.7839 -9.97568 10.358 -11.0987 10.1541 -11.6376C9.72359 -12.7651 9.27952 -13.9334 8.43671 -14.101C7.4489 -14.2957 6.51093 -13.4806 5.89921 -12.7696C5.81765 -12.67 5.65452 -12.6247 5.5503 -12.7153C5.16515 -13.0413 4.9114 -13.4444 4.77546 -13.9108C4.69843 -14.2595 4.73921 -14.7893 4.77999 -15.301C4.84796 -16.2021 4.90687 -16.981 4.45827 -17.3613C4.31327 -17.4836 4.05046 -17.6104 3.63811 -17.5062C2.29686 -17.1712 2.56874 -14.6896 2.74999 -13.6436C2.76358 -13.5621 2.76359 -13.4761 2.75452 -13.39L2.43733 -10.7364C2.38749 -10.3198 2.49624 -9.89417 2.74093 -9.54549L4.0414 -7.7387C4.16827 -7.5621 4.22718 -7.34021 4.20905 -7.11832L3.92811 -4.24738C3.88733 -3.75832 4.05499 -3.27832 4.3903 -2.92512L6.43843 -0.78323C6.64687 -0.565872 6.90515 -0.407379 7.19515 -0.321342V1.28168L7.13624 1.55338C7.11812 1.54432 7.09999 1.53979 7.07733 1.53526C6.82811 1.44469 6.56077 1.47639 6.33874 1.63036C6.10765 1.79337 5.96718 2.06507 5.96718 2.36394V3.77224C5.96718 4.13903 6.18015 4.4696 6.49733 4.60092C6.55171 4.62356 6.60608 4.64168 6.66046 4.65979V6.27639C6.54718 6.29451 6.43843 6.33526 6.33874 6.40318C6.10765 6.5662 5.96718 6.8379 5.96718 7.13677V8.54507C5.96718 8.91186 6.18015 9.24243 6.49733 9.37375C6.55171 9.39639 6.60608 9.41451 6.66046 9.43262V11.0492C6.54718 11.0673 6.43843 11.1081 6.33874 11.176C6.10765 11.339 5.96718 11.6107 5.96718 11.9096V13.3179C5.96718 13.6847 6.18015 14.0153 6.49733 14.1466C6.55171 14.1692 6.60608 14.1873 6.66046 14.2054V15.8221C6.54718 15.8402 6.43843 15.8809 6.33874 15.9488C6.10765 16.1119 5.96718 16.3836 5.96718 16.6824V18.0907C5.96718 18.4575 6.18015 18.7881 6.49733 18.9194C6.55171 18.9421 6.60608 18.9602 6.66046 18.9783V20.5949C6.54718 20.613 6.43843 20.6538 6.33874 20.7217C6.10765 20.8847 5.96718 21.1564 5.96718 21.4553V22.8636C5.96718 23.2304 6.18015 23.5609 6.49733 23.6922C6.55171 23.7149 6.60608 23.733 6.66046 23.7511V25.1504L6.70124 25.3587C6.57437 25.3722 6.45202 25.4175 6.33874 25.4945C6.10765 25.6575 5.96718 25.9292 5.96718 26.2281V27.6364C5.96718 28.0032 6.18015 28.3338 6.49733 28.4651C6.7103 28.5511 6.92327 28.6281 7.13624 28.7005L7.03655 30.2266L6.31155 31.7798C5.79952 31.3587 5.3328 30.8832 4.92952 30.3488C4.78905 30.1587 4.57155 30.0454 4.3178 30.059C4.03686 30.0681 3.77405 30.2175 3.6064 30.4666L2.85874 31.5715C2.6503 31.8749 2.64124 32.2553 2.83608 32.5179C3.04905 32.8213 3.28015 33.1066 3.52937 33.3783L2.73186 34.5103C2.6503 34.4107 2.55968 34.3156 2.48265 34.2115C2.33765 34.0213 2.12015 33.9126 1.87093 33.9217C1.58999 33.9307 1.32718 34.0802 1.15952 34.3292L0.411866 35.4432C0.212491 35.742 0.203429 36.1224 0.38921 36.3851C2.00233 38.6583 4.58968 40.1254 7.49421 40.4062C7.51687 40.4153 7.53952 40.4153 7.56671 40.4153C7.85218 40.4153 8.13312 40.2568 8.30983 40.0032L9.04843 38.9028C9.22062 38.6492 9.25234 38.3458 9.13452 38.0922C9.03937 37.8839 8.85811 37.7436 8.63608 37.6892L9.47437 36.4937C9.62843 36.5164 9.78702 36.5345 9.94561 36.5526C9.96827 36.5571 9.99546 36.5571 10.0181 36.5571C10.3036 36.5571 10.5891 36.3987 10.7567 36.1405L10.8791 35.9639L11.0014 36.1405C11.1736 36.3987 11.4591 36.5526 11.7445 36.5526C11.7672 36.5526 11.7944 36.5526 11.817 36.5481C11.9756 36.5345 12.1297 36.5119 12.2837 36.4892L13.122 37.6847C12.9 37.739 12.7142 37.8794 12.6236 38.0877C12.5058 38.3413 12.542 38.6447 12.7097 38.8983L13.4483 39.9987C13.6205 40.2568 13.9059 40.4107 14.1914 40.4107C14.2141 40.4107 14.2412 40.4107 14.2639 40.4062C17.1684 40.1254 19.7558 38.6583 21.3689 36.3851C21.5501 36.127 21.5411 35.7466 21.3417 35.4477ZM6.74655 21.4643C6.74655 21.4145 6.76468 21.3828 6.80546 21.3692C9.55593 22.3926 12.5737 22.3428 15.297 21.2198L15.1475 20.8621L15.3197 21.2243C15.3378 21.2379 15.3559 21.2651 15.3559 21.3149V22.7096C15.3559 22.773 15.3242 22.8092 15.3106 22.8138C12.6236 24.0228 9.51515 24.0862 6.79187 22.9768C6.77827 22.9722 6.74655 22.9315 6.74655 22.8726V21.4643ZM6.74655 16.687C6.74655 16.6371 6.76468 16.6054 6.80546 16.5919C9.55593 17.6198 12.5737 17.5654 15.297 16.4424L15.1475 16.0802L15.3197 16.4424C15.3378 16.456 15.3559 16.4832 15.3559 16.533V17.9277C15.3559 17.9911 15.3242 18.0273 15.3106 18.0319C12.6236 19.2409 9.51515 19.3043 6.79187 18.1949C6.77827 18.1904 6.74655 18.1496 6.74655 18.0907V16.687ZM6.74655 11.9096C6.74655 11.8598 6.76468 11.8281 6.80546 11.8145C9.55593 12.8379 12.5737 12.7881 15.297 11.6651L15.1475 11.3028L15.3197 11.6651C15.3378 11.6787 15.3559 11.7058 15.3559 11.7556V13.1504C15.3559 13.2092 15.3287 13.25 15.3106 13.2545C12.6236 14.4636 9.51515 14.527 6.79187 13.4175C6.77827 13.413 6.74655 13.3722 6.74655 13.3134V11.9096ZM6.74655 7.13677C6.74655 7.08696 6.76468 7.05526 6.80546 7.04168C9.55593 8.0696 12.5737 8.01526 15.297 6.89224L15.1475 6.52998L15.3197 6.89224C15.3378 6.90583 15.3559 6.933 15.3559 6.98281V8.37753C15.3559 8.43639 15.3287 8.47715 15.3106 8.48167C12.6191 9.69073 9.51515 9.7496 6.79187 8.64469C6.77827 8.64017 6.74655 8.59941 6.74655 8.54054V7.13677ZM4.95218 -3.46398C4.77093 -3.65417 4.67577 -3.91681 4.69843 -4.17946L4.97937 -7.0504C5.01109 -7.46247 4.90233 -7.86549 4.66671 -8.19606L3.36624 -9.99832C3.2303 -10.1885 3.17593 -10.4149 3.19859 -10.6413L3.27109 -11.2345C3.37984 -11.1485 3.5203 -11.0851 3.70155 -11.0489C4.08218 -11.1259 4.6939 -11.4564 5.15155 -12.0451C5.57296 -11.7825 6.13937 -11.864 6.48374 -12.2625C6.7964 -12.6293 7.60296 -13.4715 8.27812 -13.3357C8.69952 -13.2496 9.1164 -12.1583 9.41999 -11.3568C9.86405 -10.1976 10.2447 -9.19228 11.0286 -9.19228C11.808 -9.19228 12.1886 -10.193 12.6326 -11.3523C12.9362 -12.1538 13.3576 -13.2496 13.7745 -13.3357C14.4225 -13.4625 15.1747 -12.7153 15.5644 -12.267C15.7411 -12.0542 16.0039 -11.9138 16.2848 -11.8912C16.5522 -11.8685 16.815 -11.95 17.0144 -12.1221C17.037 -12.1402 17.0551 -12.1674 17.0778 -12.1855C17.2772 -11.4836 18.1291 -10.7093 18.777 -11.2617L18.8495 -10.6459C18.8767 -10.4195 18.8178 -10.1885 18.6864 -10.0029L17.3859 -8.19606C17.1412 -7.86549 17.0325 -7.45795 17.0733 -7.04587L17.3451 -4.17493C17.3723 -3.91681 17.2817 -3.65417 17.1005 -3.46398L15.0523 -1.3221C14.8983 -1.16361 14.6989 -1.06398 14.4859 -1.04134L11.5361 -0.733418C11.1917 -0.697191 10.8473 -0.697191 10.503 -0.733418L7.55311 -1.03682C7.33561 -1.05946 7.13624 -1.15908 6.98671 -1.31304L4.95218 -3.46398ZM6.74655 2.35941C6.74655 2.3096 6.76468 2.2779 6.80546 2.26432C9.56046 3.29224 12.5737 3.2379 15.297 2.11488L15.1475 1.75262L15.3197 2.11488C15.3378 2.12847 15.3559 2.15564 15.3559 2.20545V3.60017C15.3559 3.65903 15.3287 3.69979 15.3106 3.70432C12.6191 4.91337 9.51515 4.97224 6.79187 3.86734C6.77827 3.86281 6.74655 3.82205 6.74655 3.76319V2.35941ZM6.74655 27.65V26.2417C6.74655 26.1919 6.76468 26.1602 6.80546 26.1466C9.55593 27.17 12.5737 27.1202 15.297 25.9971L15.1475 25.6394L15.3197 26.0017C15.3378 26.0153 15.3559 26.0424 15.3559 26.0922V27.487C15.3559 27.5504 15.3242 27.5866 15.3106 27.5911C12.6236 28.8002 9.51515 28.8636 6.79187 27.7541C6.77827 27.7496 6.74655 27.7088 6.74655 27.65ZM8.40046 38.4681L7.66187 39.5685C7.62562 39.6183 7.5803 39.6364 7.57124 39.6364C4.89327 39.3737 2.50983 38.0288 1.03265 35.9549C1.03265 35.9504 1.03265 35.9187 1.05983 35.8824L1.80749 34.7685C1.83921 34.7232 1.87093 34.7096 1.8664 34.696C3.42515 36.7519 5.74968 38.0741 8.41858 38.4319C8.41405 38.4454 8.40952 38.4545 8.40046 38.4681ZM10.1042 35.7058C10.0725 35.7511 10.0272 35.7738 10.0136 35.7738C7.33108 35.5111 4.94765 34.1662 3.47499 32.0877C3.47499 32.0832 3.47499 32.056 3.50218 32.0153L4.24984 30.9058C4.27249 30.8696 4.29968 30.8515 4.3178 30.847C5.72249 32.69 7.75702 33.9488 10.1042 34.4379C10.077 34.6371 10.1269 34.85 10.2492 35.0356L10.3987 35.2621L10.1042 35.7058ZM11.7355 35.7738C11.7219 35.7738 11.672 35.7556 11.6403 35.7058L11.2008 35.0537C11.2008 35.0492 11.1962 35.0492 11.1962 35.0492L10.8972 34.6054C10.8881 34.5919 10.8836 34.5828 10.8791 34.5737C10.9062 34.5692 10.938 34.5647 10.9651 34.5602C10.9697 34.5602 10.9697 34.5602 10.9742 34.5602C13.6069 34.1843 15.8951 32.8666 17.4086 30.8515C17.4176 30.8515 17.4584 30.8605 17.4947 30.9149L18.2423 32.0288C18.2695 32.0651 18.265 32.0922 18.2741 32.0877C16.7969 34.1662 14.4089 35.5156 11.7355 35.7738ZM14.1823 39.6364C14.1687 39.6364 14.1234 39.6183 14.0872 39.5685L13.3441 38.4681C13.335 38.4545 13.3305 38.4454 13.3259 38.4364C15.9948 38.0787 18.3239 36.7519 19.8555 34.7096C19.8691 34.7096 19.9053 34.7187 19.9416 34.773L20.6892 35.887C20.7164 35.9232 20.7164 35.9549 20.7209 35.9458C19.2437 38.0288 16.8603 39.3737 14.1823 39.6364Z" fill="#DCEBE7"/>
</g>
<defs>
<clipPath id="clip0_480_1263">
<rect width="21.75" height="30" fill="white"/>
</clipPath>
</defs>
</svg>
