<svg width="31" height="30" viewBox="0 0 31 30" fill="none" xmlns="http://www.w3.org/2000/svg">
<g clip-path="url(#clip0_480_1228)">
<path d="M2.77417 29.9355L4.35326 28.0752L4.22582 27.8466C2.98071 25.6567 2.98509 23.9808 4.23754 22.7166C4.46606 22.4881 4.77075 22.3636 5.09595 22.3636C5.53103 22.3636 5.93239 22.5848 6.16088 22.9525C8.0022 25.8851 11.49 27.6355 15.495 27.6355C19.5 27.6355 23.5721 25.9026 26.3479 23.0009C29.1677 20.0536 30.555 16.1455 30.357 11.698C30.1549 7.12636 26.3812 4.65923 22.9391 4.65923C21.0861 4.65923 19.3312 5.32718 17.9895 6.53423C17.5325 6.94733 16.8089 6.96488 16.3576 6.56792C15.2517 5.59232 14.906 3.57231 14.5046 0.597173L14.4328 0.0610352L13.9568 0.315919C13.5701 0.522462 12.6399 1.06153 12.3674 1.60644L12.3191 1.70019L12.3264 1.80566C12.3982 2.6421 12.8479 6.93979 15.1316 9.38779C15.5066 9.78915 15.593 10.3663 15.3484 10.8277C14.3128 12.8155 13.1965 13.8204 12.029 13.8204C11.6248 13.8204 11.178 13.7047 10.7019 13.4747C10.1057 13.1891 9.47874 13.047 8.83419 13.047C7.70919 13.047 6.61055 13.504 5.82249 14.3067C5.34935 14.7828 5.01242 15.3497 4.81322 15.9899C4.6931 16.3722 4.36352 16.6754 3.95042 16.7853C2.53247 17.1529 0.770228 18.3043 0.436253 21.7011C0.0202284 25.939 1.73409 28.6165 2.48705 29.5716L2.7727 29.932L2.77417 29.9355ZM2.47827 20.8534C2.94264 18.9974 4.04566 18.7015 4.40892 18.6034C5.45922 18.3338 6.29859 17.5458 6.60327 16.5482C6.719 16.1878 6.89917 15.8876 7.15846 15.6254C7.59792 15.1786 8.20876 14.9208 8.83426 14.9208C9.19461 14.9208 9.53885 15.0028 9.88749 15.1683C12.0848 16.2259 14.1209 15.6854 15.7862 13.6127L16.0602 13.267L16.296 13.5292C16.7794 13.6947 17.443 13.7167 18.2267 13.5966C18.6353 13.5365 19.0484 13.4384 19.4498 13.349C20.1588 13.1835 20.8941 13.015 21.6807 13.0033C22.5362 12.996 23.339 13.1644 24.1182 13.33C24.8946 13.4984 25.6299 13.6522 26.4019 13.6376C26.7213 13.6332 27.0318 13.5966 27.3658 13.5585C27.587 13.5321 27.8126 13.5057 28.0367 13.4911L28.4762 13.4574L28.4381 13.8969C28.1685 16.9379 26.9762 19.6377 24.9913 21.7074C22.5611 24.2459 19.0104 25.7607 15.4933 25.7607C11.9762 25.7607 9.24579 24.3398 7.75029 21.9552C7.16874 21.0368 6.17852 20.4845 5.09601 20.4845C4.35039 20.4845 3.65166 20.7438 3.08623 21.2272L2.18976 21.9963L2.47833 20.8522L2.47827 20.8534Z" fill="#D8A7A0"/>
<path d="M8.38905 21.558C9.74696 23.7216 12.4012 25.0121 15.4949 25.0121C18.8143 25.0121 22.1628 23.5839 24.454 21.1905C26.247 19.3198 27.3193 16.9938 27.6459 14.2792L27.454 14.3012C27.1201 14.3422 26.7758 14.3803 26.4184 14.3876C25.56 14.4023 24.75 14.2338 23.9619 14.0653C23.1899 13.8969 22.4428 13.7387 21.6928 13.7548C20.9838 13.7665 20.3202 13.9159 19.6186 14.0815C19.2055 14.1752 18.7792 14.2734 18.3398 14.3407C17.748 14.4301 16.9189 14.4902 16.2026 14.2851C14.9794 15.7206 13.5776 16.4486 12.0292 16.4486C11.2265 16.4486 10.3974 16.2465 9.56534 15.8451C8.89443 15.5258 8.16348 15.6723 7.69034 16.1527C7.51456 16.3329 7.39737 16.5321 7.31973 16.7709C6.93742 18.016 5.89882 18.9945 4.6083 19.3285C4.3915 19.3885 3.97841 19.5013 3.62246 20.0331C4.08682 19.8383 4.58632 19.7372 5.0961 19.7372C6.43788 19.7372 7.66837 20.4198 8.38905 21.5595V21.558Z" fill="#D8A7A0"/>
</g>
<defs>
<clipPath id="clip0_480_1228">
<rect width="30.75" height="30" fill="white"/>
</clipPath>
</defs>
</svg>
