<svg width="37" height="30" viewBox="0 0 37 30" fill="none" xmlns="http://www.w3.org/2000/svg">
<path d="M29.0194 13.3558C28.7009 12.7325 29.0831 11.3612 26.5034 11.3612C26.1849 11.3612 25.8982 11.4235 25.6116 11.517C25.0702 10.7066 24.1466 10.8936 24.1466 10.8936C24.0192 11.517 24.0829 11.9533 24.2103 12.2962C23.6688 12.7325 23.223 13.2623 22.8408 13.7298C22.1401 14.6337 21.1209 15.257 19.9744 15.4129C18.7004 15.5999 17.1717 15.818 16.7577 15.818C15.42 15.818 13.9231 14.9765 11.8211 14.9765C10.7064 14.9765 9.55987 15.07 8.69995 15.5064C8.50886 15.3817 8.28592 15.3194 8.03113 15.3194C6.53424 15.3194 6.375 17.0024 6.375 17.0024C6.375 17.5322 6.66164 17.9062 7.04382 18.0621C7.04382 21.3346 8.34962 21.4593 8.38147 22.7371C8.41332 23.7656 7.20307 23.3604 7.20307 25.1993C7.20307 26.6641 7.26676 28.0043 7.29861 28.8147C7.33046 29.251 7.6808 29.5938 8.12668 29.5938H9.52802C9.59172 28.9705 9.14584 28.6588 9.30508 26.072C9.30508 25.9785 9.36878 25.8538 9.46432 25.6668C9.49617 25.7291 9.52802 25.7915 9.55987 25.8538C9.87836 26.5083 9.94205 27.381 10.1968 28.5653C10.3242 29.1575 10.8975 29.625 11.5026 29.625H12.6173C12.6173 28.69 12.1396 28.7835 11.9167 25.324C12.0441 25.137 12.7129 24.2019 13.4454 23.2046C14.8786 23.4539 16.5347 23.4228 17.8405 23.2981C18.3501 23.2358 19.4648 23.0799 20.261 22.8618C20.3566 22.8306 20.3884 22.9553 20.3247 22.9864L19.3056 23.3293C19.4648 24.2019 19.5922 25.1681 19.5604 26.1031C19.5604 26.633 19.433 27.1005 19.433 28.4095C19.433 29.3445 19.9744 29.625 20.4521 29.625H21.6942C21.6942 28.316 21.0254 28.1602 21.4713 25.9473C21.5031 25.8538 21.5031 25.7291 21.535 25.6045L22.1083 28.0667L22.2993 28.9393C22.3949 29.3445 22.7452 29.625 23.1911 29.625H24.4969C24.4969 28.5342 24.1147 28.2848 24.0192 26.6953C23.9555 25.3863 23.9555 25.3863 23.9555 24.389C24.1147 22.3943 26.0893 23.0799 26.5352 17.9374C26.5989 17.1582 27.3314 16.6284 28.4143 16.6284C29.529 16.6284 29.529 16.0985 29.9112 15.5375C30.2934 14.9765 29.3379 13.948 29.0194 13.3558Z" fill="#D8A7A0"/>
</svg>
