<svg width="60" height="60" viewBox="0 0 60 60" fill="none" xmlns="http://www.w3.org/2000/svg">
<rect x="0.5" y="0.5" width="59" height="59" rx="9.5" fill="#FFCFA8"/>
<rect x="0.5" y="0.5" width="59" height="59" rx="9.5" stroke="#D1D1D6"/>
<g clip-path="url(#clip0_475_1478)">
<path fill-rule="evenodd" clip-rule="evenodd" d="M40.3363 20.5013L29.4993 33.745L37.3054 40.2398C37.6604 40.536 38.1751 40.2996 38.2189 39.8967L40.3363 20.5013ZM28.0549 32.991L38.4132 20.3328L19.9026 30.712C19.4747 30.9524 19.5625 31.6017 20.0901 31.6884L28.0549 32.991ZM38.7574 18.3102C40.2524 17.4714 42.1455 18.6333 41.9548 20.3856L39.8055 40.0692C39.618 41.7826 37.5834 42.5466 36.2839 41.4665L28.1545 34.7026C28.0787 34.6397 27.9849 34.5969 27.8842 34.5799L19.8327 33.2634C17.852 32.9393 17.3444 30.3173 19.1226 29.32L38.7574 18.3102Z" fill="#9C4A2D"/>
</g>
<defs>
<clipPath id="clip0_475_1478">
<rect width="24" height="24" fill="white" transform="translate(18 18)"/>
</clipPath>
</defs>
</svg>
