<svg width="201" height="34" viewBox="0 0 201 34" fill="none" xmlns="http://www.w3.org/2000/svg">
<path d="M55.1961 18.6017V8.27492H51.4132V18.6017C51.4132 21.0271 49.8099 22.4774 47.3548 22.4774C44.8997 22.4774 43.2963 21.0271 43.2963 18.6017V8.27492H39.5134V18.6017C39.5134 23.1025 42.67 26.028 47.3548 26.028C52.0395 26.028 55.1961 22.9524 55.1961 18.6017Z" fill="black"/>
<path d="M58.8286 8.27492V25.7779H62.5864V18.5517H66.0186L70.528 25.7779H74.9372L69.0249 16.3263L74.6867 8.27492H70.2775L65.5677 15.0011H62.5864V8.27492H58.8286Z" fill="black"/>
<path d="M80.9247 16.7764V11.5755H85.2838C87.1126 11.5755 88.1648 12.5256 88.1648 14.1759C88.1648 15.8262 87.1126 16.7764 85.2838 16.7764H80.9247ZM77.1919 8.27492V25.7779H80.9247V20.0019H84.5322L88.5405 25.7779H92.9497L88.6157 19.5518V19.2518C90.5948 18.2516 92.0479 16.3763 92.0479 14.0759C92.0479 10.7003 89.5928 8.27492 85.4842 8.27492H77.1919Z" fill="black"/>
<path d="M99.0375 17.0764V11.5755H103.397C105.25 11.5755 106.303 12.5757 106.303 14.326C106.303 16.0763 105.25 17.0764 103.397 17.0764H99.0375ZM95.3047 8.27492V25.7779H99.0375V20.277H103.597C107.48 20.277 110.161 17.7515 110.161 14.2759C110.161 10.8003 107.706 8.27492 103.597 8.27492H95.3047Z" fill="black"/>
<path d="M121.209 22.4523C118.127 22.4523 115.998 20.2519 115.998 17.0264C115.998 13.8008 118.127 11.6005 121.209 11.6005C124.29 11.6005 126.42 13.8008 126.42 17.0264C126.42 20.2519 124.29 22.4523 121.209 22.4523ZM121.209 26.0279C126.42 26.0279 130.303 22.2023 130.303 17.0264C130.303 11.8505 126.545 8.02484 121.209 8.02484C115.873 8.02484 112.115 11.8505 112.115 17.0264C112.115 22.2023 115.873 26.0279 121.209 26.0279Z" fill="black"/>
<path d="M139.296 26.0279C144.407 26.0279 147.138 23.9526 147.138 20.677C147.138 16.6263 143.731 15.9512 140.499 15.4011C136.966 14.826 135.914 14.526 135.914 13.2507C135.914 11.9755 137.142 11.4504 139.597 11.4504C141.526 11.4504 143.655 12.0755 144.833 13.0257L146.887 10.1002C145.108 8.69996 142.303 8.02484 139.547 8.02484C134.612 8.02484 132.207 10.3002 132.207 13.3257C132.207 17.3514 135.839 18.2016 139.497 18.8017C142.278 19.2518 143.405 19.5018 143.405 20.827C143.405 21.9772 142.278 22.6023 139.472 22.6023C137.092 22.6023 134.837 21.8272 133.584 20.677L131.555 23.5775C133.284 25.1028 135.914 26.0279 139.296 26.0279Z" fill="black"/>
<path d="M150.019 8.27492V25.7779H153.777V18.5767H161.693V25.7779H165.451V8.27492H161.693V14.9761H153.777V8.27492H150.019Z" fill="black"/>
<path d="M183.338 8.27492H167.906V11.8255H173.743V25.7779H177.501V11.8255H183.338V8.27492Z" fill="black"/>
<path d="M188.649 18.9768L191.255 12.3006H191.606L194.211 18.9768H188.649ZM189.201 8.27492L182.01 25.7779H186.019L187.372 22.3023H195.489L196.841 25.7779H201L193.81 8.27492H189.201Z" fill="black"/>
<path d="M35.7289 0C35.7289 0 28.9377 18.9806 26.5564 24.1632C24.175 29.3458 20.1135 34 13.2146 34C5.91639 34 0 28.1285 0 20.8857C1.30727e-05 15.0102 3.89347 10.0373 9.25957 8.3691L12.6923 16.0626C10.2386 16.3213 8.32704 18.3819 8.32703 20.8857C8.32703 23.5645 10.5153 25.7362 13.2146 25.7362C15.9139 25.7362 18.0394 23.5645 18.0394 20.8857C18.0394 19.6281 17.634 18.5161 17.1971 17.5622C16.7604 16.6087 9.40102 0.0129734 9.39526 0H35.7289Z" fill="#FFBE0C"/>
</svg>
